<?xml version="1.0" encoding="utf-8"?><svg width="251" height="240" viewBox="0 0 251 240" xmlns="http://www.w3.org/2000/svg" xmlns:xlink="http://www.w3.org/1999/xlink"><svg id="Add_Host" viewBox="-1 -1 18 18" width="18" height="18" x="170.89" y="88"><style>.aast0{fill:#37708d}.aast1{fill:#fff}.aast2{fill:#799baf}.aast3{fill:#cbdae0}.aast4{fill:#214556}</style><title>Add Host</title><path class="aast0" d="M12 0H2v15h10V0z"/><path class="aast1" d="M3 1h8v13H3z"/><path class="aast2" d="M4 2h6v1H4z"/><path class="aast3" d="M4 7h6v7H4z"/><path class="aast1" d="M2 5v2h3V5h2V2H5V0H2v2H0v3z"/><path class="aast1" d="M5 2V0H2v8h3V6h2V2z"/><path class="aast4" d="M6 3H4V1H2v2H0v2h2v2h2V5h2z"/></svg><svg id="Host_Connect" data-name="Layer 1" viewBox="-1 -1 18 18" width="18" height="18" x="196.89" y="126"><defs><style>.abcls-1,.abcls-2{fill:none}.abcls-1{clip-rule:evenodd}.abcls-3{fill:#37708d}.abcls-4{fill:#fff}.abcls-5{fill:#799baf}.abcls-6{fill:#cbdae0}.cls-7{clip-path:url(#abclip-path)}.cls-8{clip-path:url(#abclip-path-2)}.cls-9{clip-path:url(#abclip-path-3)}.abcls-10{fill:#1e4556;fill-rule:evenodd}</style><clipPath id="abclip-path"><path class="abcls-1" d="M-122.19-80.22a5.49 5.49 0 0 0 2.33 4.5h6.33a5.52 5.52 0 0 0 1.33-1.34v-6.33a5.49 5.49 0 0 0-4.5-2.34 5.5 5.5 0 0 0-5.49 5.51z"/></clipPath><clipPath id="abclip-path-2"><path class="abcls-2" d="M-37 128.89h2v2h-2z"/></clipPath><clipPath id="abclip-path-3"><path class="abcls-2" d="M-31 128.89h2v2h-2z"/></clipPath></defs><title>Host Connected</title><path class="abcls-3" d="M10 0H0v15h10V0z"/><path class="abcls-4" d="M1 1h8v13H1z"/><path class="abcls-5" d="M2 2h6v1H2z"/><path class="abcls-6" d="M2 7h6v7H2z"/><path class="abcls-10" d="M11 6V5h-1v7h1v-1h1a2 2 0 0 0 2-2h2V8h-2a2 2 0 0 0-2-2z"/></svg><svg id="Host_Disconnect" data-name="Layer 1" viewBox="-1 -1 18 18" width="18" height="18" x="120.89" y="76.02000000000001"><defs><style>.accls-1,.accls-2{fill:none}.accls-1{clip-rule:evenodd}.accls-3{fill:#37708d}.accls-4{fill:#fff}.accls-5{fill:#799baf}.accls-6{fill:#cbdae0}.cls-7{clip-path:url(#acclip-path)}.cls-8{clip-path:url(#acclip-path-2)}.cls-9{clip-path:url(#acclip-path-3)}.accls-10{fill:#1e4556;fill-rule:evenodd}</style><clipPath id="acclip-path"><path class="accls-1" d="M-102.19-80.22a5.49 5.49 0 0 0 2.34 4.5h6.33a5.52 5.52 0 0 0 1.34-1.34v-6.33a5.49 5.49 0 0 0-4.5-2.34 5.5 5.5 0 0 0-5.51 5.51z"/></clipPath><clipPath id="acclip-path-2"><path class="accls-2" d="M-17 128.89h2v2h-2z"/></clipPath><clipPath id="acclip-path-3"><path class="accls-2" d="M-11 128.89h2v2h-2z"/></clipPath></defs><title>Host Disconnected_1</title><path class="accls-3" d="M11 0H1v15h10V0z"/><path class="accls-4" d="M2 1h8v13H2z"/><path class="accls-5" d="M3 2h6v1H3z"/><path class="accls-6" d="M3 7h6v7H3z"/><path class="accls-4" d="M11 12.82V4h-1v3H8v3h1a3 3 0 0 0 2 2.82z"/><path class="accls-10" d="M15 10V9h1V8h-2V5h-1v3h-1V5h-1v3H9v1h1v1a2 2 0 0 0 2 2v2a2 2 0 0 0 2 2h2v-1h-2a1 1 0 0 1-1-1v-2a2 2 0 0 0 2-2z"/></svg><svg id="Host_Maintenance_Mode_Enter" data-name="Layer 1" viewBox="-1 -1 18 18" width="18" height="18" x="68" y="126"><defs><style>.adcls-1,.adcls-2{fill:none}.adcls-1{clip-rule:evenodd}.adcls-3{fill:#38718e}.adcls-4{fill:#fff}.adcls-5{fill:#7a9caf}.adcls-6{fill:#cbdae0}.adcls-7{fill:#010101}.adcls-8{fill:#ffd111}.cls-9{clip-path:url(#adclip-path)}.cls-10{clip-path:url(#adclip-path-2)}.cls-11{clip-path:url(#adclip-path-3)}.adcls-12{fill:#1e4557}</style><clipPath id="adclip-path"><path class="adcls-1" d="M-102.19-60.22a5.49 5.49 0 0 0 2.34 4.5h6.33a5.52 5.52 0 0 0 1.34-1.34v-6.33a5.49 5.49 0 0 0-4.5-2.34 5.5 5.5 0 0 0-5.51 5.51z"/></clipPath><clipPath id="adclip-path-2"><path class="adcls-2" d="M-17 148.89h2v2h-2z"/></clipPath><clipPath id="adclip-path-3"><path class="adcls-2" d="M-11 148.89h2v2h-2z"/></clipPath></defs><title>Host Maintenance Mode Enter</title><path class="adcls-3" d="M12 0H2v15h10z"/><path class="adcls-4" d="M3 1h8v13H3z"/><path class="adcls-5" d="M4 2h6v1H4z"/><path class="adcls-6" d="M4 7h6v7H4z"/><path class="adcls-7" d="M2 5h10v5H2z"/><path class="adcls-8" d="M3 6h8v3H3z"/><path class="adcls-7" transform="rotate(-45 4.997 7.5)" d="M2.5 7h5v1h-5z"/><path class="adcls-7" transform="rotate(-45 8.998 7.503)" d="M6.5 7h5v1h-5z"/><path class="adcls-4" d="M9 15l-2.56-2.5L12 7v8z"/><path class="adcls-12" d="M7.96 12.5L12 9v2h4v3h-4v2l-4.04-3.5z"/></svg><svg id="Host_Maintenance_Mode_Exit" data-name="Layer 1" viewBox="-1 -1 18 18" width="18" height="18" x="54" y="150"><defs><style>.aecls-1,.aecls-2{fill:none}.aecls-1{clip-rule:evenodd}.cls-3{clip-path:url(#aeclip-path)}.cls-4{clip-path:url(#aeclip-path-2)}.cls-5{clip-path:url(#aeclip-path-3)}.aecls-6{fill:#38718e}.aecls-7{fill:#fff}.aecls-8{fill:#7a9caf}.aecls-9{fill:#cbdae0}.aecls-10{fill:#010101}.aecls-11{fill:#ffd111}.aecls-12{fill:#1f4657}</style><clipPath id="aeclip-path"><path class="aecls-1" d="M-82.19-60.22a5.49 5.49 0 0 0 2.34 4.5h6.33a5.52 5.52 0 0 0 1.34-1.34v-6.33a5.49 5.49 0 0 0-4.5-2.34 5.5 5.5 0 0 0-5.51 5.51z"/></clipPath><clipPath id="aeclip-path-2"><path class="aecls-2" d="M3 148.89h2v2H3z"/></clipPath><clipPath id="aeclip-path-3"><path class="aecls-2" d="M9 148.89h2v2H9z"/></clipPath></defs><title>Host Maintenance Mode Exit</title><path class="aecls-6" d="M12 0H2v15h10z"/><path class="aecls-7" d="M3 1h8v13H3z"/><path class="aecls-8" d="M4 2h6v1H4z"/><path class="aecls-9" d="M4 7h6v7H4z"/><path class="aecls-10" d="M2 5h10v5H2z"/><path class="aecls-11" d="M3 6h8v3H3z"/><path class="aecls-10" transform="rotate(-45 4.997 7.5)" d="M2.5 7h5v1h-5z"/><path class="aecls-10" transform="rotate(-45 8.998 7.503)" d="M6.5 7h5v1h-5z"/><path class="aecls-7" d="M11 8v2H7v5h5V8h-1z"/><path class="aecls-12" d="M16 12.5L12 9v2H8v3h4v2l4-3.5z"/></svg><svg id="Host_Policy" data-name="Layer 1" viewBox="-1 -1 18 18" width="18" height="18" x="72" y="168"><defs><style>.afcls-1,.afcls-2{fill:none}.afcls-1{clip-rule:evenodd}.afcls-3{fill:#37708d}.afcls-4{fill:#fff}.afcls-5{fill:#799baf}.afcls-6{fill:#cbdae0}.cls-7{clip-path:url(#afclip-path)}.cls-8{clip-path:url(#afclip-path-2)}.cls-9{clip-path:url(#afclip-path-3)}.afcls-10{fill:#35718e}</style><clipPath id="afclip-path"><path class="afcls-1" d="M-62.19-80.22a5.49 5.49 0 0 0 2.34 4.5h6.33a5.52 5.52 0 0 0 1.34-1.34v-6.33a5.49 5.49 0 0 0-4.5-2.34 5.5 5.5 0 0 0-5.51 5.51z"/></clipPath><clipPath id="afclip-path-2"><path class="afcls-2" d="M23 128.89h2v2h-2z"/></clipPath><clipPath id="afclip-path-3"><path class="afcls-2" d="M29 128.89h2v2h-2z"/></clipPath></defs><title>Host Policy</title><path class="afcls-3" d="M11 0H1v15h10V0z"/><path class="afcls-4" d="M2 1h8v13H2z"/><path class="afcls-5" d="M3 2h6v1H3z"/><path class="afcls-6" d="M3 7h6v7H3z"/><path class="afcls-4" d="M11 15V5.06H8.57a2.19 2.19 0 0 0-2.46 2.46v3.29H4.88V15z"/><path class="afcls-10" d="M13 16H9c-1.81 0-3-.54-3-2v-2h1V8a1.78 1.78 0 0 1 2-2h4a1.75 1.75 0 0 1 2 2v6a1.76 1.76 0 0 1-2 2zm-6-3c0 1.42-.06 2.13 1 2h5c1 0 1 0 1-1V8c0-.79-.15-1-1-1H9c-.85 0-1 .21-1 1v5z"/><path class="afcls-4" d="M7 13c0 1.42.12 2 .6 2H13c.69 0 1 0 1-1V8c0-.79-.15-1-1-1H9c-.85 0-1 .21-1 1v5z"/><path class="afcls-6" d="M8 13H7c0 2 0 2 1 2z"/><path class="afcls-5" d="M9 10h4v1H9zM9 12h4v1H9z"/><path class="afcls-10" d="M14 6H9v3h7V8c0-1.34-.17-2-2-2zm1 2h-5V7h4a.88.88 0 0 1 1 1z"/><path class="afcls-6" d="M15 8h-5V7h5z"/></svg><svg id="Host_Reboot" data-name="Layer 1" viewBox="-1 -1 18 18" width="18" height="18" x="196.89" y="36"><defs><style>.agcls-1,.agcls-2{fill:none}.agcls-1{clip-rule:evenodd}.cls-3{clip-path:url(#agclip-path)}.cls-4{clip-path:url(#agclip-path-2)}.cls-5{clip-path:url(#agclip-path-3)}.agcls-6{fill:#38718e}.agcls-7{fill:#fff}.agcls-8{fill:#7a9caf}.agcls-9{fill:#cbdae0}.agcls-10{fill:#37728f}</style><clipPath id="agclip-path"><path class="agcls-1" d="M-102.19-40.22a5.49 5.49 0 0 0 2.34 4.5h6.33a5.52 5.52 0 0 0 1.34-1.34v-6.33a5.49 5.49 0 0 0-4.5-2.34 5.5 5.5 0 0 0-5.51 5.51z"/></clipPath><clipPath id="agclip-path-2"><path class="agcls-2" d="M-17 168.89h2v2h-2z"/></clipPath><clipPath id="agclip-path-3"><path class="agcls-2" d="M-11 168.89h2v2h-2z"/></clipPath></defs><title>Host Reboot</title><path class="agcls-6" d="M12 0H2v15h10z"/><path class="agcls-7" d="M3 1h8v13H3z"/><path class="agcls-8" d="M4 2h6v1H4z"/><path class="agcls-9" d="M4 7h6v7H4z"/><path class="agcls-10" d="M6 5v5h5L9.62 8.61a4.16 4.16 0 0 1 6.38-.5 4.63 4.63 0 0 0-8.11-1.22z"/><path class="agcls-2" d="M6 5v5h5L9.62 8.61a4.16 4.16 0 0 1 6.38-.5 4.63 4.63 0 0 0-8.11-1.22z"/><path class="agcls-7" d="M12 9.59l-1-1A3 3 0 0 1 12 8V4h-.37a5.65 5.65 0 0 0-3.77 1.45L5.41 3H5v8h7z"/><path class="agcls-7" d="M8.59 9L11 11.43a3.25 3.25 0 0 1-4.29-.22L5 9.44v2.63l.06.16A5.62 5.62 0 0 0 7.14 15H12V9z"/><path class="agcls-10" d="M16 15v-5h-5l1.38 1.38a4.16 4.16 0 0 1-6.38.51 4.63 4.63 0 0 0 8.11 1.21zM6 5v5h5L9.62 8.61a4.16 4.16 0 0 1 6.38-.5 4.63 4.63 0 0 0-8.11-1.22z"/></svg><svg viewBox="-1 -1 18 18" width="18" height="18" id="action-remove" x="196.89" y="54"><defs><style>.ahcls-1{fill:#565656}</style></defs><title>Asset 1</title><g id="ahLayer_2" data-name="Layer 2"><g id="ahLayer_3" data-name="Layer 3"><path class="ahcls-1" d="M11.32 4.75a.45.45 0 0 0-.64 0L8 7.36 5.38 4.69a.45.45 0 0 0-.64.63L7.36 8l-2.67 2.62a.45.45 0 0 0 .63.64L8 8.64l2.63 2.68a.45.45 0 0 0 .64-.63L8.64 8l2.68-2.63a.45.45 0 0 0 0-.62z"/><path class="ahcls-1" d="M8 0a8 8 0 1 0 8 8 8 8 0 0 0-8-8zm0 15a7 7 0 1 1 7-7 7 7 0 0 1-7 7z"/></g></g></svg><svg id="add" viewBox="-1 -1 18 18" width="18" height="18" x="196.89" y="72"><style>.aist0{fill:none;stroke:#747474;stroke-width:2;stroke-linecap:round;stroke-miterlimit:10}</style><g id="aiLayer_1_1_"><path class="aist0" d="M8 1v14M1 8h14"/></g></svg><svg viewBox="-1 -1 18 18" width="18" height="18" id="cloud-network" x="196.89" y="108"><defs><style>.ajcls-1{fill:#fff}.ajcls-2{fill:#ccdbe1}.ajcls-3,.ajcls-4,.ajcls-5,.ajcls-7{fill:none;stroke-miterlimit:10}.ajcls-3{stroke:#38738f}.ajcls-3,.ajcls-5{stroke-linecap:round}.ajcls-4,.ajcls-5{stroke:#245d80}.ajcls-6{fill:#b1c8d4}.ajcls-7{stroke:#50809b}</style></defs><title>*new</title><g id="ajLayer_3" data-name="Layer 3"><path class="ajcls-1" d="M3.39 6.26A3.32 3.32 0 0 0 2 8.64a2.26 2.26 0 1 0 2.13 3.92 3.89 3.89 0 0 0 6.44.21 3.45 3.45 0 1 0 1.65-6.62A5.2 5.2 0 0 0 8 4.37a7 7 0 0 0-4.61 1.89z"/><path class="ajcls-2" d="M15.13 9a3.45 3.45 0 0 1-4.53 1.82 3.89 3.89 0 0 1-6.44-.21 2.25 2.25 0 0 1-3.44-.82 2.26 2.26 0 0 0 3.44 2.77 3.89 3.89 0 0 0 6.44.21 3.44 3.44 0 0 0 4.65-4.16 3.4 3.4 0 0 1-.12.39z"/><path class="ajcls-3" d="M3.39 6.26A3.32 3.32 0 0 0 2 8.64a2.26 2.26 0 1 0 2.13 3.92 3.89 3.89 0 0 0 6.44.21 3.45 3.45 0 1 0 1.65-6.62"/><circle class="ajcls-1" cx="7.81" cy="4.14" r="3.42"/><path class="ajcls-4" d="M7.82 7.06v2.5"/><path class="ajcls-5" d="M4.28 9.44h7.41"/><path class="ajcls-6" d="M9.68 1.28a5.08 5.08 0 0 1 .05.53 5.18 5.18 0 0 1-4 5 3.41 3.41 0 1 0 3.95-5.53z"/><circle class="ajcls-7" cx="7.81" cy="4.14" r="3.42"/></g></svg><svg viewBox="-1 -1 18 18" width="18" height="18" id="cloud-network-alert" x="214.89" y="144"><defs><style>.akcls-1{fill:#fff}.akcls-2{fill:#ccdbe1}.akcls-3,.akcls-4,.akcls-5,.akcls-7{fill:none;stroke-miterlimit:10}.akcls-3{stroke:#38738f}.akcls-3,.akcls-5{stroke-linecap:round}.akcls-4,.akcls-5{stroke:#245d80}.akcls-6{fill:#b1c8d4}.akcls-7{stroke:#50809b}.akcls-8{fill:#e52528}</style></defs><title>*new</title><g id="akLayer_3" data-name="Layer 3"><path class="akcls-1" d="M3.45 6.2A3.32 3.32 0 0 0 2.1 8.57a2.26 2.26 0 1 0 2.13 3.92 3.89 3.89 0 0 0 6.44.21 3.45 3.45 0 1 0 1.65-6.62 5.2 5.2 0 0 0-4.26-1.77A7 7 0 0 0 3.45 6.2z"/><path class="akcls-2" d="M15.13 9a3.45 3.45 0 0 1-4.53 1.82 3.89 3.89 0 0 1-6.44-.21 2.25 2.25 0 0 1-3.44-.82 2.26 2.26 0 0 0 3.44 2.77 3.89 3.89 0 0 0 6.44.21 3.44 3.44 0 0 0 4.65-4.16 3.4 3.4 0 0 1-.12.39z"/><path class="akcls-3" d="M3.39 6.26A3.32 3.32 0 0 0 2 8.64a2.26 2.26 0 1 0 2.13 3.92 3.89 3.89 0 0 0 6.44.21 3.45 3.45 0 1 0 1.65-6.62"/><circle class="akcls-1" cx="7.81" cy="4.14" r="3.42"/><path class="akcls-4" d="M7.82 7.06v2.5"/><path class="akcls-5" d="M4.28 9.44h7.41"/><path class="akcls-6" d="M9.68 1.28a5.08 5.08 0 0 1 .05.53 5.18 5.18 0 0 1-4 5 3.41 3.41 0 1 0 3.95-5.53z"/><circle class="akcls-7" cx="7.81" cy="4.14" r="3.42"/><path class="akcls-1" d="M7.46 14.88a4.39 4.39 0 0 0 3.3-1.51 3.94 3.94 0 0 0 4.64-5.68 5.5 5.5 0 0 0-8.32 7.14c.13.01.26.05.38.05z"/><path class="akcls-8" d="M11.5 7A4.5 4.5 0 1 1 7 11.5 4.5 4.5 0 0 1 11.5 7"/><path class="akcls-1" d="M11 9h1v3h-1zM11 13h1v1h-1z"/></g></svg><svg viewBox="-1 -1 18 18" width="18" height="18" id="cloud-network-warning" x="36" y="222"><defs><style>.alcls-1{fill:#fff}.alcls-2{fill:#ccdbe1}.alcls-3,.alcls-4,.alcls-5,.alcls-7{fill:none;stroke-miterlimit:10}.alcls-3{stroke:#38738f}.alcls-3,.alcls-5{stroke-linecap:round}.alcls-4,.alcls-5{stroke:#245d80}.alcls-6{fill:#b1c8d4}.alcls-7{stroke:#50809b}.alcls-8{fill:#987e2e}.alcls-9{fill:#ffd111}.alcls-10{fill:#221f1f}</style></defs><title>*new</title><g id="alLayer_3" data-name="Layer 3"><path class="alcls-1" d="M3.39 6.26A3.32 3.32 0 0 0 2 8.64a2.26 2.26 0 1 0 2.13 3.92 3.89 3.89 0 0 0 6.44.21 3.45 3.45 0 1 0 1.65-6.62A5.2 5.2 0 0 0 8 4.37a7 7 0 0 0-4.61 1.89z"/><path class="alcls-2" d="M15.13 9a3.45 3.45 0 0 1-4.53 1.82 3.89 3.89 0 0 1-6.44-.21 2.25 2.25 0 0 1-3.44-.82 2.26 2.26 0 0 0 3.44 2.77 3.89 3.89 0 0 0 6.44.21 3.44 3.44 0 0 0 4.65-4.16 3.4 3.4 0 0 1-.12.39z"/><path class="alcls-3" d="M3.39 6.26A3.32 3.32 0 0 0 2 8.64a2.26 2.26 0 1 0 2.13 3.92 3.89 3.89 0 0 0 6.44.21 3.45 3.45 0 1 0 1.65-6.62"/><circle class="alcls-1" cx="7.81" cy="4.14" r="3.42"/><path class="alcls-4" d="M7.82 7.06v2.5"/><path class="alcls-5" d="M4.28 9.44h7.41"/><path class="alcls-6" d="M9.68 1.28a5.08 5.08 0 0 1 .05.53 5.18 5.18 0 0 1-4 5 3.41 3.41 0 1 0 3.95-5.53z"/><circle class="alcls-7" cx="7.81" cy="4.14" r="3.42"/><g id="alBEST"><path class="alcls-1" d="M6.48 14.76a4.42 4.42 0 0 0 1 .11 4.39 4.39 0 0 0 3.3-1.51 4 4 0 0 0 4.82-2.22 3.86 3.86 0 0 0 .11-.37L13.15 6.3a2.93 2.93 0 0 0-5 0l-3.7 6.3a3 3 0 0 0-.29.77 4.35 4.35 0 0 0 2.32 1.39z"/><path class="alcls-8" d="M15.95 13.2l-3.7-6.4a1.62 1.62 0 0 0-1.6-.9 1.85 1.85 0 0 0-1.7.9l-3.7 6.3a1.93 1.93 0 0 0 .7 2.6 1.69 1.69 0 0 0 1 .3h7.3a2.06 2.06 0 0 0 1.7-1z"/><path class="alcls-9" d="M11.27 7.43l3.73 6.3a1 1 0 0 1-.3 1.3.75.75 0 0 1-.5.1H6.88a1 1 0 0 1-.8-1.4l3.6-6.3a.84.84 0 0 1 1.14-.34h.06a1.38 1.38 0 0 1 .39.34z"/><path class="alcls-10" d="M9.88 13.13h1v1h-1zM9.88 9.13h1v3h-1z"/></g></g></svg><svg id="cluster" data-name="Layer 1" viewBox="-1 -1 18 18" width="18" height="18" x="170.89" y="70"><defs><style>.amcls-1{fill:#4f809a}.amcls-2{fill:#cbd9e0}.amcls-3{fill:#356f8c}.amcls-4{fill:#fff}.amcls-5{fill:#789aaf}</style></defs><title>vsphere 16x text-SVG-temp</title><path class="amcls-1" d="M7 0H0v13h7V0z"/><path class="amcls-2" d="M6 1v11H1V1h5"/><path class="amcls-1" d="M15 0H8v13h7V0z"/><path class="amcls-2" d="M14 1v11H9V1h5"/><path class="amcls-3" d="M12 2H3v13h9V2z"/><path class="amcls-4" d="M11 3v11H4V3h7"/><path class="amcls-5" d="M5 4h5v1H5z"/><path class="amcls-2" d="M5 8h5v6H5z"/></svg><svg id="cluster-24x" data-name="Layer 1" viewBox="-1 -1 26 26" width="26" height="26" x="76" y="100"><defs><style>.ancls-1,.ancls-4{fill:#c8d6dd}.ancls-1,.ancls-2{stroke:#518097;stroke-miterlimit:10}.ancls-2{fill:#fff;stroke:#004a70}.ancls-3{fill:#004a70}</style></defs><title>icon artboards patch 2 strokecenter</title><path class="ancls-1" d="M2.5 3.5h8v16h-8zM13.5 3.5h8v16h-8z"/><path class="ancls-2" d="M17.5 5.5h-10v16h10v-16z"/><path class="ancls-3" d="M9 8h7v1H9z"/><path class="ancls-4" d="M9 14h7v6.16H9z"/></svg><svg id="cluster-error" data-name="Layer 1" viewBox="-1 -1 18 18" width="18" height="18" x="170.89" y="106"><defs><style>.aocls-1{fill:#4f809a}.aocls-2{fill:#cbd9e0}.aocls-3{fill:#356f8c}.aocls-4{fill:#fff}.aocls-5{fill:#789aaf}.aocls-6{fill:#e81e25}</style></defs><title>vsphere 16x text-SVG-temp</title><path class="aocls-1" d="M7 0H0v13h7V0z"/><path class="aocls-2" d="M6 1v11H1V1h5"/><path class="aocls-1" d="M15 0H8v13h7V0z"/><path class="aocls-2" d="M14 1v11H9V1h5"/><path class="aocls-3" d="M12 2H3v13h9V2z"/><path class="aocls-4" d="M11 3v11H4V3h7"/><path class="aocls-5" d="M5 4h5v1H5z"/><path class="aocls-2" d="M5 8h5v6H5z"/><path class="aocls-4" d="M11.5 6a5.5 5.5 0 0 0-4.24 9H12v-2h3V7.26A5.48 5.48 0 0 0 11.5 6z"/><path class="aocls-6" d="M11.5 7A4.5 4.5 0 1 1 7 11.5 4.51 4.51 0 0 1 11.5 7"/><path class="aocls-4" d="M11 9h1v3h-1zM11 13h1v1h-1z"/></svg><svg id="cluster-warning" data-name="Layer 1" viewBox="-1 -1 18 18" width="18" height="18" x="170.89" y="124"><defs><style>.apcls-1{fill:#4f809a}.apcls-2{fill:#cbd9e0}.apcls-3{fill:#1b5c7e}.apcls-4{fill:#fff}.apcls-5{fill:#789aaf}.apcls-6{fill:#ffd110}.apcls-7{fill:#997c00}.apcls-8{fill:#231f20}</style></defs><title>vsphere 16x text-SVG-temp</title><path class="apcls-1" d="M7 0H0v13h7V0z"/><path class="apcls-2" d="M6 1v11H1V1h5"/><path class="apcls-1" d="M15 0H8v13h7V0z"/><path class="apcls-2" d="M14 1v11H9V1h5"/><path class="apcls-3" d="M12 2H3v13h9V2z"/><path class="apcls-4" d="M11 3v11H4V3h7"/><path class="apcls-5" d="M5 4h5v1H5z"/><path class="apcls-2" d="M5 8h5v6H5z"/><path class="apcls-6" d="M11.07 6.34H10L5.58 14v1.14h9.71v-1.49l-4.22-7.31z"/><path class="apcls-4" d="M11.88 5a.92.92 0 0 0-.8-.46H9.84A.92.92 0 0 0 9 5l-5.06 8.84a.92.92 0 0 0-.12.46v.7H12v-2h3v-2.6z"/><path class="apcls-7" d="M15.59 16H5.28v-2.12L9.83 6h1.41l4.35 7.53V16z"/><path class="apcls-6" d="M5.88 14.76h9.11v-1.03L10.9 6.64h-.72l-4.3 7.44v.68z"/><path class="apcls-8" d="M10 9h1v3h-1zM10 13h1v1h-1z"/></svg><svg id="collapse" data-name="Layer 2" viewBox="-1 -1 44.84 49" width="9" height="9" x="156.89" y="76.02000000000001"><defs><style>.aqcls-1{fill:#007bcc;width:10px}</style></defs><title>ic_doublearrow</title><path class="aqcls-1" d="M66.74 49.29L50 65.78 33.26 49.29a2.75 2.75 0 1 0-3.86 3.92L50 73.5l20.6-20.29a2.75 2.75 0 1 0-3.86-3.92z" transform="translate(-28.58 -26.5)"/><path class="aqcls-1" d="M50 51.5l20.6-20.29a2.75 2.75 0 1 0-3.86-3.92L50 43.78 33.26 27.29a2.75 2.75 0 1 0-3.86 3.92z" transform="translate(-28.58 -26.5)"/></svg><svg id="cpu-summary" data-name="Layer 1" viewBox="-1 -1 26 26" width="26" height="26" x="50" y="100"><defs><style>.arcls-1{fill:#89b085;stroke:#54815b;stroke-miterlimit:10}.arcls-2{fill:#fcfdff}.arcls-3{fill:#fff}</style></defs><title>icon artboards patch 2 strokecenter</title><path class="arcls-1" d="M10.1 2.5v.95H8V2.5H2.5v19H8v-.95h2.1v.95h11.4v-19H10.1z"/><path class="arcls-2" d="M17 18H7a1 1 0 0 1-1-1V8a2 2 0 0 1 2-2h9a1 1 0 0 1 1 1v10a1 1 0 0 1-1 1z"/><path class="arcls-3" d="M4 4h1v1H4z"/></svg><svg id="datacenter" data-name="Layer 1" viewBox="-1 -1 18 18" width="18" height="18" x="138.89" y="76.02000000000001"><defs><style>.ascls-1{fill:#356f8c}.ascls-2{fill:#fff}.ascls-3{fill:#d9e3e9}.ascls-4{fill:#789bb0}</style></defs><title>vsphere 16x text-SVG-temp</title><path class="ascls-1" d="M15 4H9v11h6V4z"/><path class="ascls-2" d="M13.97 5v9h-4V5h4"/><path class="ascls-1" d="M10 1H1v14h9V1z"/><path class="ascls-2" d="M9 2v12H2V2h7"/><path class="ascls-3" d="M9 14H2v-3.08l7-6V14z"/><path class="ascls-4" d="M3 4h1v1H3zM5 4h1v1H5zM7 4h1v1H7zM3 6h1v1H3zM5 6h1v1H5zM7 6h1v1H7zM3 8h1v1H3zM5 8h1v1H5zM7 8h1v1H7zM3 10h1v1H3zM5 10h1v1H5zM7 10h1v1H7zM10 6h3v1h-3zM10 8h3v1h-3zM10 10h3v1h-3z"/><path class="ascls-1" d="M0 14h16v1H0z"/></svg><svg id="datacenter-error" data-name="Layer 1" viewBox="-1 -1 18 18" width="18" height="18" x="100.66" y="50"><defs><style>.atcls-1{fill:#356f8c}.atcls-2{fill:#fff}.atcls-3{fill:#d9e3e9}.atcls-4{fill:#789bb0}.atcls-5{fill:#e81e25}</style></defs><title>new</title><path class="atcls-1" d="M15 4H9v11h6V4z"/><path class="atcls-2" d="M13.97 5v9h-4V5h4"/><path class="atcls-1" d="M10 1H1v14h9V1z"/><path class="atcls-2" d="M9 2v12H2V2h7"/><path class="atcls-3" d="M9 14H2v-3.08l7-6V14z"/><path class="atcls-4" d="M3 4h1v1H3zM5 4h1v1H5zM7 4h1v1H7zM3 6h1v1H3zM5 6h1v1H5zM7 6h1v1H7zM3 8h1v1H3zM5 8h1v1H5zM7 8h1v1H7zM3 10h1v1H3zM5 10h1v1H5zM7 10h1v1H7zM10 6h3v1h-3zM10 8h3v1h-3zM10 10h3v1h-3z"/><path class="atcls-1" d="M0 14h16v1H0z"/><path class="atcls-2" d="M15.74 15.08c.09-.11.17-.23.26-.34v-.66h-1V7.34a5.5 5.5 0 0 0-7.74 7.74h8.49z"/><path class="atcls-5" d="M11.5 7A4.5 4.5 0 1 1 7 11.5 4.51 4.51 0 0 1 11.5 7"/><path class="atcls-2" d="M11 9h1v3h-1zM11 13h1v1h-1z"/></svg><svg id="datacenter-warning" data-name="Layer 1" viewBox="-1 -1 18 18" width="18" height="18" x="100.66" y="68"><defs><style>.aucls-1{fill:#356f8c}.aucls-2{fill:#fff}.aucls-3{fill:#d9e3e9}.aucls-4{fill:#789bb0}.aucls-5{fill:#ffd110}.aucls-6{fill:#997c00}.aucls-7{fill:#231f20}</style></defs><title>vsphere 16x text-SVG-temp</title><path class="aucls-1" d="M15 4H9v11h6V4z"/><path class="aucls-2" d="M13.97 5v9h-4V5h4"/><path class="aucls-1" d="M10 1H1v14h9V1z"/><path class="aucls-2" d="M9 2v12H2V2h7"/><path class="aucls-3" d="M9 14H2v-3.08l7-6V14z"/><path class="aucls-4" d="M3 4h1v1H3zM5 4h1v1H5zM7 4h1v1H7zM3 6h1v1H3zM5 6h1v1H5zM7 6h1v1H7zM3 8h1v1H3zM5 8h1v1H5zM7 8h1v1H7zM3 10h1v1H3zM5 10h1v1H5zM7 10h1v1H7zM10 6h3v1h-3zM10 8h3v1h-3zM10 10h3v1h-3z"/><path class="aucls-1" d="M0 14h16v1H0z"/><path class="aucls-5" d="M11.07 6.34H10L5.58 14v1.14h9.71v-1.49l-4.22-7.31z"/><path class="aucls-2" d="M11.88 5a.92.92 0 0 0-.8-.46H9.84A.92.92 0 0 0 9 5l-5.06 8.84a.92.92 0 0 0-.12.46v.7H16v-1h-1v-3.6z"/><path class="aucls-6" d="M15.59 16H5.28v-2.12L9.83 6h1.41l4.35 7.53V16z"/><path class="aucls-5" d="M5.88 14.76h9.11v-1.03L10.9 6.64h-.72l-4.3 7.44v.68z"/><path class="aucls-7" d="M10 9h1v3h-1zM10 13h1v1h-1z"/></svg><svg id="datastore" data-name="Layer 1" viewBox="-1 -1 18 18" width="18" height="18" x="50" y="126"><defs><style>.avcls-1{fill:#fff}.avcls-2{fill:#d9e2e8}.avcls-3,.avcls-4,.avcls-5{fill:none;stroke-miterlimit:10}.avcls-3{stroke:#9ab6c5}.avcls-4{stroke:#36708c;stroke-width:.8px}.avcls-5{stroke:#6c8d9f;opacity:.5}</style></defs><title>icon artboards patch 2 strokecenter</title><path class="avcls-1" d="M7 .4C3.35.4.4 1.31.4 2.4v10.16c0 1.13 3 2 6.6 2s6.6-.91 6.6-2V2.44C13.6 1.31 10.65.4 7 .4z"/><path class="avcls-1" d="M7 .4C3.35.4.4 1.31.4 2.4v10.16c0 1.13 3 2 6.6 2s6.6-.91 6.6-2V2.44C13.6 1.31 10.65.4 7 .4z"/><path class="avcls-2" d="M9.06.5v14c2.63-.27 4.54-1 4.54-1.94V2.44c0-.9-1.9-1.67-4.54-1.94z"/><ellipse class="avcls-1" cx="7.06" cy="2.54" rx="6.52" ry="2.11"/><path class="avcls-3" d="M12.91 6.63A14.43 14.43 0 0 1 7 7.81a14.14 14.14 0 0 1-6-1.22M12.91 10.63A14.43 14.43 0 0 1 7 11.81a14.14 14.14 0 0 1-6-1.22"/><path class="avcls-4" d="M7 .4C3.35.4.4 1.31.4 2.4v10.16c0 1.13 3 2 6.6 2s6.6-.91 6.6-2V2.44C13.6 1.31 10.65.4 7 .4z"/><path class="avcls-5" d="M12.91 3.52a14.83 14.83 0 0 1-5.91 1 14.53 14.53 0 0 1-6-1"/></svg><svg id="datastore-24x" data-name="Layer 1" viewBox="-1 -1 26 26" width="26" height="26" x="102" y="100"><defs><style>.awcls-1{fill:#fff}.awcls-2{fill:#c8d6dd}.awcls-3,.awcls-4{fill:none;stroke-miterlimit:10}.awcls-3{stroke:#508099}.awcls-4{stroke:#004a70;stroke-width:.8px}</style></defs><title>icon artboards patch 2 strokecenter</title><path class="awcls-1" d="M19.42 6.05c-.52-1.21-3.6-2.14-7.34-2.14s-6.82.93-7.34 2.14h-.08v13.2h.08c.52 1.21 3.6 2.14 7.34 2.14s6.82-.93 7.34-2.14h.08V6.05h-.08z"/><path class="awcls-2" d="M14.31 4v17.21c2.68-.28 4.7-1.07 5.1-2h.09V6h-.08C19 5 17 4.25 14.31 4z"/><ellipse class="awcls-2" cx="12.5" cy="6.15" rx="7.16" ry="2.14"/><path class="awcls-3" d="M19.56 5.54c0 1.53-3.35 2.78-7.48 2.78S4.6 7.08 4.6 5.54M19.56 9.77c0 1.53-3.35 2.78-7.48 2.78S4.6 11.3 4.6 9.77M19.56 14.17c0 1.53-3.35 2.78-7.48 2.78S4.6 15.7 4.6 14.17"/><path class="awcls-4" d="M19.42 6.05c-.52-1.21-3.6-2.14-7.34-2.14s-6.82.93-7.34 2.14h-.08v13.2h.08c.52 1.21 3.6 2.14 7.34 2.14s6.82-.93 7.34-2.14h.08V6.05h-.08z"/></svg><svg id="datastore-cluster" data-name="Layer 1" viewBox="-1 -1 18 18" width="18" height="18" x="86" y="126"><defs><style>.axcls-1,.axcls-4{fill:#cad8df}.axcls-1{stroke:#508099;stroke-miterlimit:10}.axcls-2{fill:#9ab6c5}.axcls-3{fill:#fff}.axcls-5{fill:none;stroke:#36708c;stroke-linejoin:round}</style></defs><title>icon artboards patch 2 strokecenter</title><rect class="axcls-1" x=".5" y="2.5" width="7" height="9" rx="1" ry="1"/><rect class="axcls-1" x="7.5" y="2.5" width="7" height="9" rx="1" ry="1"/><path class="axcls-2" d="M8 5h6v1H8zM8 8h6v1H8zM1 5h6v1H1zM1 8h6v1H1z"/><rect class="axcls-3" x="3.5" y="5.5" width="8" height="9" rx="1" ry="1"/><path class="axcls-4" d="M10.5 5.5H8v9h2.5a1 1 0 0 0 1-1v-7a1 1 0 0 0-1-1z"/><rect class="axcls-5" x="3.5" y="5.5" width="8" height="9" rx="1" ry="1"/><path class="axcls-2" d="M4 8h7v1H4zM4 11h7v1H4z"/></svg><svg id="datastore-cluster-error" data-name="Layer 1" viewBox="-1 -1 18 18" width="18" height="18" x="104" y="126"><defs><style>.aycls-1,.aycls-4{fill:#cad8df}.aycls-1{stroke:#508099;stroke-miterlimit:10}.aycls-2{fill:#9ab6c5}.aycls-3{fill:#fff}.aycls-5{fill:none;stroke:#36708c;stroke-linejoin:round}.aycls-6{fill:#e52127}</style></defs><title>icon artboards patch 2 strokecenter</title><rect class="aycls-1" x=".5" y="2.5" width="7" height="9" rx="1" ry="1"/><rect class="aycls-1" x="7.5" y="2.5" width="7" height="9" rx="1" ry="1"/><path class="aycls-2" d="M8 5h6v1H8zM8 8h6v1H8zM1 5h6v1H1zM1 8h6v1H1z"/><rect class="aycls-3" x="3.5" y="5.5" width="8" height="9" rx="1" ry="1"/><path class="aycls-4" d="M10.5 5.5H8v9h2.5a1 1 0 0 0 1-1v-7a1 1 0 0 0-1-1z"/><rect class="aycls-5" x="3.5" y="5.5" width="8" height="9" rx="1" ry="1"/><path class="aycls-2" d="M4 8h7v1H4zM4 11h7v1H4z"/><path class="aycls-3" d="M11.5 6a5.49 5.49 0 0 0-4.89 8H11a1 1 0 0 0 1-1v-2h2a1 1 0 0 0 1-1V7.26A5.48 5.48 0 0 0 11.5 6z"/><path class="aycls-6" d="M11.5 7A4.5 4.5 0 1 1 7 11.5 4.51 4.51 0 0 1 11.5 7"/><path class="aycls-3" d="M11 9h1v3h-1zM11 13h1v1h-1z"/></svg><svg id="datastore-cluster-warning" data-name="Layer 1" viewBox="-1 -1 18 18" width="18" height="18" x="122" y="126"><defs><style>.azcls-1,.azcls-4{fill:#cad8df}.azcls-1{stroke:#508099;stroke-miterlimit:10}.azcls-2{fill:#9ab6c5}.azcls-3{fill:#fff}.azcls-5{fill:none;stroke:#36708c;stroke-linejoin:round}.azcls-6{fill:#977d2e}.azcls-7{fill:#ffd00f}.azcls-8{fill:#221f1f}</style></defs><title>icon artboards patch 2 strokecenter</title><rect class="azcls-1" x=".5" y="2.5" width="7" height="9" rx="1" ry="1"/><rect class="azcls-1" x="7.5" y="2.5" width="7" height="9" rx="1" ry="1"/><path class="azcls-2" d="M8 5h6v1H8zM8 8h6v1H8zM1 5h6v1H1zM1 8h6v1H1z"/><rect class="azcls-3" x="3.5" y="5.5" width="8" height="9" rx="1" ry="1"/><path class="azcls-4" d="M10.5 5.5H8v9h2.5a1 1 0 0 0 1-1v-7a1 1 0 0 0-1-1z"/><rect class="azcls-5" x="3.5" y="5.5" width="8" height="9" rx="1" ry="1"/><path class="azcls-2" d="M4 8h7v1H4zM4 11h7v1H4z"/><path class="azcls-3" d="M11 14.47a1 1 0 0 0 1-1v-2h2a1 1 0 0 0 1-.84l-3-5.17a.92.92 0 0 0-.81-.46H9.84a.92.92 0 0 0-.8.46L5 12.38l-1 2.09h7z"/><path class="azcls-6" d="M15.59 16H5.28v-2.12L9.83 6h1.41l4.35 7.53V16z"/><path class="azcls-7" d="M5.88 14.76h9.11v-1.03L10.9 6.64h-.72l-4.3 7.44v.68z"/><path class="azcls-8" d="M10 9h1v3h-1zM10 13h1v1h-1z"/></svg><svg id="datastore-error" data-name="Layer 1" viewBox="-1 -1 18 18" width="18" height="18" x="140" y="126"><defs><style>.bacls-1{fill:#fff}.bacls-2{fill:#d9e2e8}.bacls-3,.bacls-4,.bacls-5{fill:none;stroke-miterlimit:10}.bacls-3{stroke:#9ab6c5}.bacls-4{stroke:#36708c;stroke-width:.8px}.bacls-5{stroke:#6c8d9f;opacity:.5}.bacls-6{fill:#e52127}</style></defs><title>icon artboards patch 2 strokecenter</title><path class="bacls-1" d="M7 .4C3.35.4.4 1.31.4 2.4v10.16c0 1.13 3 2 6.6 2s6.6-.91 6.6-2V2.44C13.6 1.31 10.65.4 7 .4z"/><path class="bacls-1" d="M7 .4C3.35.4.4 1.31.4 2.4v10.16c0 1.13 3 2 6.6 2s6.6-.91 6.6-2V2.44C13.6 1.31 10.65.4 7 .4z"/><path class="bacls-2" d="M9.06.5v14c2.63-.27 4.54-1 4.54-1.94V2.44c0-.9-1.9-1.67-4.54-1.94z"/><ellipse class="bacls-1" cx="7.06" cy="2.54" rx="6.52" ry="2.11"/><path class="bacls-3" d="M12.91 6.63A14.43 14.43 0 0 1 7 7.81a14.14 14.14 0 0 1-6-1.22M12.91 10.63A14.43 14.43 0 0 1 7 11.81a14.14 14.14 0 0 1-6-1.22"/><path class="bacls-4" d="M7 .4C3.35.4.4 1.31.4 2.4v10.16c0 1.13 3 2 6.6 2s6.6-.91 6.6-2V2.44C13.6 1.31 10.65.4 7 .4z"/><path class="bacls-5" d="M12.91 3.52a14.83 14.83 0 0 1-5.91 1 14.53 14.53 0 0 1-6-1"/><path class="bacls-1" d="M11.5 6a5.5 5.5 0 0 0-4.25 9C11 15 14 14 14 12.85V6.61A5.47 5.47 0 0 0 11.5 6z"/><path class="bacls-6" d="M11.5 7A4.5 4.5 0 1 1 7 11.5 4.51 4.51 0 0 1 11.5 7"/><path class="bacls-1" d="M11 9h1v3h-1zM11 13h1v1h-1z"/></svg><svg id="datastore-inaccessible" data-name="Layer 1" viewBox="-1 -1 18 18" width="18" height="18" y="150"><defs><style>.bbcls-1{fill:#fff}.bbcls-2{fill:#d9e2e8}.bbcls-3,.bbcls-4,.bbcls-5{fill:none;stroke-miterlimit:10}.bbcls-3{stroke:#9ab6c5}.bbcls-4{stroke:#36708c;stroke-width:.8px}.bbcls-5{stroke:#6c8d9f;opacity:.5}.bbcls-6{fill:#e52127}</style></defs><title>icon artboards patch 2 strokecenter</title><path class="bbcls-1" d="M7 .4C3.35.4.4 1.31.4 2.4v10.16c0 1.13 3 2 6.6 2s6.6-.91 6.6-2V2.44C13.6 1.31 10.65.4 7 .4z"/><path class="bbcls-1" d="M7 .4C3.35.4.4 1.31.4 2.4v10.16c0 1.13 3 2 6.6 2s6.6-.91 6.6-2V2.44C13.6 1.31 10.65.4 7 .4z"/><path class="bbcls-2" d="M9.06.5v14c2.63-.27 4.54-1 4.54-1.94V2.44c0-.9-1.9-1.67-4.54-1.94z"/><ellipse class="bbcls-1" cx="7.06" cy="2.54" rx="6.52" ry="2.11"/><path class="bbcls-3" d="M12.91 6.63A14.43 14.43 0 0 1 7 7.81a14.14 14.14 0 0 1-6-1.22M12.91 10.63A14.43 14.43 0 0 1 7 11.81a14.14 14.14 0 0 1-6-1.22"/><path class="bbcls-4" d="M7 .4C3.35.4.4 1.31.4 2.4v10.16c0 1.13 3 2 6.6 2s6.6-.91 6.6-2V2.44C13.6 1.31 10.65.4 7 .4z"/><path class="bbcls-5" d="M12.91 3.52a14.83 14.83 0 0 1-5.91 1 14.53 14.53 0 0 1-6-1"/><path class="bbcls-1" d="M11.5 6a5.5 5.5 0 0 0-4.25 9C11 15 14 14 14 12.85V6.61A5.47 5.47 0 0 0 11.5 6z"/><path class="bbcls-6" d="M11.5 7A4.5 4.5 0 1 1 7 11.5 4.51 4.51 0 0 1 11.5 7"/><path class="bbcls-1" d="M8 11h7v1H8z"/></svg><svg id="datastore-maintenance" data-name="Layer 1" viewBox="-1 -1 18 18" width="18" height="18" x="18" y="150"><defs><style>.bccls-1{fill:#fff}.bccls-2{fill:#d9e2e8}.bccls-3,.bccls-6,.bccls-7{fill:none;stroke-miterlimit:10}.bccls-3{stroke:#6c8d9f;opacity:.5}.bccls-4{fill:#ffdf24}.bccls-5{fill:#221f1f}.bccls-6{stroke:#977d2e}.bccls-7{stroke:#36708c;stroke-width:.8px}</style></defs><title>icon artboards patch 2 strokecenter</title><path class="bccls-1" d="M7 .4C3.35.4.4 1.31.4 2.4v10.16c0 1.13 3 2 6.6 2s6.6-.91 6.6-2V2.44C13.6 1.31 10.65.4 7 .4z"/><path class="bccls-2" d="M9.06.5v14c2.63-.27 4.54-1 4.54-1.94V2.44c0-.9-1.9-1.67-4.54-1.94z"/><ellipse class="bccls-1" cx="7.06" cy="2.54" rx="6.52" ry="2.11"/><path class="bccls-3" d="M12.91 3.52a14.83 14.83 0 0 1-5.91 1 14.53 14.53 0 0 1-6-1"/><path class="bccls-4" d="M.51 10a16.83 16.83 0 0 0 6.48 1 17.19 17.19 0 0 0 6.39-1V6A17.19 17.19 0 0 1 7 7 16.83 16.83 0 0 1 .51 6v4z"/><path class="bccls-5" d="M3 6.62L.64 8.83V10a6.58 6.58 0 0 0 .66.26l3.62-3.39A21.8 21.8 0 0 1 3 6.62zM8.08 7l-4.16 3.8c.62.08 1.28.14 2 .18l4.58-4.24A23.13 23.13 0 0 1 8.08 7zM13.51 6.93l-4.33 4a19.17 19.17 0 0 0 2.56-.37l1.77-1.63v-2z"/><path class="bccls-6" d="M13.39 6A17.19 17.19 0 0 1 7 7 16.83 16.83 0 0 1 .51 6M13.39 10A17.19 17.19 0 0 1 7 11a16.83 16.83 0 0 1-6.49-1"/><path class="bccls-7" d="M7 .4C3.35.4.4 1.31.4 2.4v10.16c0 1.13 3 2 6.6 2s6.6-.91 6.6-2V2.44C13.6 1.31 10.65.4 7 .4z"/></svg><svg id="datastore-warning" data-name="Layer 1" viewBox="-1 -1 18 18" width="18" height="18" x="36" y="150"><defs><style>.bdcls-1{fill:#fff}.bdcls-2{fill:#d9e2e8}.bdcls-3,.bdcls-4,.bdcls-5{fill:none;stroke-miterlimit:10}.bdcls-3{stroke:#9ab6c5}.bdcls-4{stroke:#36708c;stroke-width:.8px}.bdcls-5{stroke:#6c8d9f;opacity:.5}.bdcls-6{fill:#ffd00f}.bdcls-7{fill:#977d2e}.bdcls-8{fill:#221f1f}</style></defs><title>icon artboards patch 2 strokecenter</title><path class="bdcls-1" d="M7 .4C3.35.4.4 1.31.4 2.4v10.16c0 1.13 3 2 6.6 2s6.6-.91 6.6-2V2.44C13.6 1.31 10.65.4 7 .4z"/><path class="bdcls-1" d="M7 .4C3.35.4.4 1.31.4 2.4v10.16c0 1.13 3 2 6.6 2s6.6-.91 6.6-2V2.44C13.6 1.31 10.65.4 7 .4z"/><path class="bdcls-2" d="M9.06.5v14c2.63-.27 4.54-1 4.54-1.94V2.44c0-.9-1.9-1.67-4.54-1.94z"/><ellipse class="bdcls-1" cx="7.06" cy="2.54" rx="6.52" ry="2.11"/><path class="bdcls-3" d="M12.91 6.63A14.43 14.43 0 0 1 7 7.81a14.14 14.14 0 0 1-6-1.22M12.91 10.63A14.43 14.43 0 0 1 7 11.81a14.14 14.14 0 0 1-6-1.22"/><path class="bdcls-4" d="M7 .4C3.35.4.4 1.31.4 2.4v10.16c0 1.13 3 2 6.6 2s6.6-.91 6.6-2V2.44C13.6 1.31 10.65.4 7 .4z"/><path class="bdcls-5" d="M12.91 3.52a14.83 14.83 0 0 1-5.91 1 14.53 14.53 0 0 1-6-1"/><path class="bdcls-6" d="M11.07 6.34H10L5.58 14v1.14h9.71v-1.49l-4.22-7.31z"/><path class="bdcls-1" d="M4 14.79A20.86 20.86 0 0 0 7 15c3.87 0 7-1 7-2.15V8.48L12 5a.92.92 0 0 0-.8-.46H9.84A.92.92 0 0 0 9 5l-4 6.92L4 14v.79z"/><path class="bdcls-7" d="M15.59 16H5.28v-2.12L9.83 6h1.41l4.35 7.53V16z"/><path class="bdcls-6" d="M5.88 14.76h9.11v-1.03L10.9 6.64h-.72l-4.3 7.44v.68z"/><path class="bdcls-8" d="M10 9h1v3h-1zM10 13h1v1h-1z"/></svg><svg id="dell" data-name="Layer 1" viewBox="-1 -1 50 50" width="50" height="50" y="100"><defs><style>.becls-1{fill:#0087cc}</style></defs><title>Dell</title><path class="becls-1" d="M24 0A24 24 0 1 1 0 24 24 24 0 0 1 24 0m0 2.59a21.41 21.41 0 1 0 15.13 6.27A21.34 21.34 0 0 0 24 2.59"/><path class="becls-1" d="M38.71 26h3.59v3h-7.2V18.65h3.6zM27 25.39L21 30l-5.42-4.26A5.23 5.23 0 0 1 10.77 29H6.14V18.65h4.63a5.18 5.18 0 0 1 4.84 3.19L21 17.58l2 1.58-5 3.9 1 .75 5-3.9 2 1.58-5 3.9 1 .75 5-3.9v-3.59h3.6V26h3.59v3H27zm-14.36-1.58a2.07 2.07 0 0 0-2.24-2.2h-.8V26h.78a2.06 2.06 0 0 0 2.26-2.2"/></svg><svg id="dv-switch" viewBox="-1 -1 18 18" width="18" height="18" x="72" y="150"><style>.bfst0{fill:#ebf1f2}.bfst1{fill:#ccdbe1}.bfst2{fill:none;stroke:#fff;stroke-miterlimit:10}.bfst3{fill:#799bb0}.bfst4{fill:none;stroke:#245d80;stroke-miterlimit:10}</style><title>DV Switch</title><path class="bfst0" d="M14.5 9.8L12.6 5c-.1-.3-.4-.5-.8-.5H3.1c-.5 0-.6.2-.7.5L.5 9.8h14z"/><path class="bfst1" d="M1 9.5h13c.3 0 .5.2.5.5v3c0 .3-.2.5-.5.5H1c-.3 0-.5-.2-.5-.5v-3c0-.3.2-.5.5-.5z"/><path class="bfst2" d="M14.5 10c0-.3-.2-.5-.5-.5H1c-.3 0-.5.2-.5.5"/><path class="bfst3" d="M2 10h1v2H2zM4 10h1v2H4zM6 10h1v2H6zM8 10h1v2H8zM10 10h1v2h-1zM12 10h1v2h-1z"/><path class="bfst4" d="M14.4 9.8L12.6 5c-.1-.3-.2-.5-.8-.5H3.1c-.5 0-.6.2-.7.5L.5 9.8V13c0 .3.2.5.5.5h13c.3 0 .5-.2.5-.5v-3c0-.1 0-.1-.1-.2z"/></svg><svg id="dv-switch-alert" viewBox="-1 -1 18 18" width="18" height="18" x="90" y="150"><style>.bgst0{fill:#ebf1f2}.bgst1{fill:#ccdbe1}.bgst2{fill:none;stroke:#fff;stroke-miterlimit:10}.bgst3{fill:#799bb0}.bgst4{fill:none;stroke:#245d80;stroke-miterlimit:10}.bgst5{fill:#fff}.bgst6{fill:#e52528}</style><title>DV Switch Alert</title><path class="bgst0" d="M14.5 7.8L12.6 3c-.1-.3-.4-.5-.8-.5H3.1c-.5 0-.6.2-.7.5L.5 7.8h14z"/><path class="bgst1" d="M1 7.5h13c.3 0 .5.2.5.5v3c0 .3-.2.5-.5.5H1c-.3 0-.5-.2-.5-.5V8c0-.3.2-.5.5-.5z"/><path class="bgst2" d="M14.5 8c0-.3-.2-.5-.5-.5H1c-.3 0-.5.2-.5.5"/><path class="bgst3" d="M2 8h1v2H2zM4 8h1v2H4zM6 8h1v2H6zM8 8h1v2H8zM10 8h1v2h-1zM12 8h1v2h-1z"/><path class="bgst4" d="M14.4 7.8L12.6 3c-.1-.3-.2-.5-.8-.5H3.1c-.5 0-.6.2-.7.5L.5 7.8V11c0 .3.2.5.5.5h13c.3 0 .5-.2.5-.5V8c0-.1 0-.1-.1-.2z"/><path class="bgst5" d="M6 11.5v.5h8c.6 0 1-.4 1-1V8c0-.2-.1-.3-.2-.5l-.2-.5c-.9-.6-2-1-3.1-1C8.5 6 6 8.5 6 11.5z"/><path class="bgst6" d="M11.5 7C14 7 16 9 16 11.5S14 16 11.5 16 7 14 7 11.5 9 7 11.5 7"/><path class="bgst5" d="M11 9h1v3h-1zM11 13h1v1h-1z"/></svg><svg id="dv-switch-warning" viewBox="-1 -1 18 18" width="18" height="18" x="108" y="150"><style>.bhst0{fill:#ebf1f2}.bhst1{fill:#ccdbe1}.bhst2{fill:none;stroke:#fff;stroke-miterlimit:10}.bhst3{fill:#799bb0}.bhst4{fill:none;stroke:#245d80;stroke-miterlimit:10}.bhst5{fill:#fff}.bhst6{fill:#987d2e}.bhst7{fill:#ffd111}.bhst8{fill:#221f1f}</style><title>DV Switch Warning</title><path class="bhst0" d="M14.5 7.8L12.6 3c-.1-.3-.4-.5-.8-.5H3.1c-.5 0-.6.2-.7.5L.5 7.8h14z"/><path class="bhst1" d="M1 7.5h13c.3 0 .5.2.5.5v3c0 .3-.2.5-.5.5H1c-.3 0-.5-.2-.5-.5V8c0-.3.2-.5.5-.5z"/><path class="bhst2" d="M14.5 8c0-.3-.2-.5-.5-.5H1c-.3 0-.5.2-.5.5"/><path class="bhst3" d="M2 8h1v2H2zM4 8h1v2H4zM6 8h1v2H6zM8 8h1v2H8zM10 8h1v2h-1zM12 8h1v2h-1z"/><path class="bhst4" d="M14.5 7.8c0-.1-1.9-4.8-1.9-4.8-.1-.3-.2-.5-.8-.5H3.1c-.5 0-.6.2-.7.5L.5 7.8V11c0 .3.2.5.5.5h13c.3 0 .5-.2.5-.5V8v-.2z"/><path class="bhst5" d="M10.7 4.9c-1 0-2 .5-2.5 1.4L4.8 12H14c.6 0 1-.4 1-1V9.4l-1.8-3.1c-.6-.9-1.5-1.4-2.5-1.4z"/><path class="bhst6" d="M16 13.2s0-.1 0 0l-3.7-6.4c-.3-.6-1-1-1.6-.9-.7 0-1.4.3-1.7.9l-3.7 6.3c-.5.9-.2 2.1.7 2.6.3.2.6.3 1 .3h7.3c.7 0 1.3-.4 1.7-1v-1.8z"/><path class="bhst7" d="M11.4 7.3l3.7 6.3c.3.4.1 1-.3 1.3-.1.1-.3.1-.5.1H7c-.5 0-.9-.4-.9-.9 0-.2 0-.3.1-.5l3.6-6.3c.2-.4.8-.6 1.2-.3.2.1.3.2.4.3z"/><path class="bhst8" d="M10 13h1v1h-1zM10 9h1v3h-1z"/></svg><svg id="event-console" viewBox="-1 -1 18 18" width="18" height="18" x="126" y="150"><style>.bist0{fill:#37708d}.bist1{fill:#fff}.bist2{fill:#cbdae0}</style><title>Event Console</title><path class="bist0" d="M0 1h14v11H0z"/><path class="bist1" d="M1 3h12v8H1z"/><path class="bist2" d="M2 4h3v1H2zM2 6h3v1H2zM2 8h3v1H2zM8 4h4v1H8zM8 6h4v1H8z"/><path class="bist0" d="M6 3h1v8H6z"/><path class="bist1" d="M15 12V7.3c-.8-.7-1.9-1.2-3-1.3h-1c-2.8.3-5 2.6-5 5.5v.5h9z"/><path class="bist0" d="M11.5 7C14 7 16 9 16 11.5S14 16 11.5 16 7 14 7 11.5 9 7 11.5 7"/><path class="bist1" d="M11 9h1v3h-1zM11 13h1v1h-1z"/></svg><svg id="filebrowser-copy" data-name="Layer 2" viewBox="-1 -1 18 18" width="18" height="18" x="144" y="150"><defs><style>.bjcls-1{fill:#747474}</style></defs><title>storage icon work</title><path class="bjcls-1" d="M2.13 2h8v1h1V1h-10v12h2v-1h-1V2z"/><path class="bjcls-1" d="M4.13 4v12h10V4zm9 11h-8V5h8z"/></svg><svg viewBox="-1 -1 18 18" width="18" height="18" id="filebrowser-download" x="162" y="150"><title>Artboard 19</title><g data-name="Layer 2" fill="#747474"><path d="M8 13l5.35-5.35a.7.7 0 0 0-1-1L8.7 10.32V1.89a.7.7 0 0 0-1.4 0v8.43L3.64 6.66a.7.7 0 0 0-1 1zM14.09 13.84H1.91a.7.7 0 0 0 0 1.4h12.18a.7.7 0 0 0 0-1.4z"/></g></svg><svg viewBox="-1 -1 18 18" width="18" height="18" id="filebrowser-move" y="168"><title>Artboard 18</title><path d="M15.16 8L9.81 2.65a.7.7 0 1 0-1 1l3.67 3.65H1.54a.7.7 0 1 0 0 1.4h10.94l-3.66 3.66a.7.7 0 0 0 1 1z" fill="#747474" data-name="Layer 2"/></svg><svg viewBox="-1 -1 18 18" width="18" height="18" id="filebrowser-upload" x="18" y="168"><title>Artboard 21</title><g data-name="Layer 2" fill="#747474"><path d="M3.64 7.75L7.3 4.1v8.43a.7.7 0 0 0 1.4 0V4.1l3.66 3.66a.7.7 0 0 0 1-1L8 1.41 2.65 6.76a.7.7 0 0 0 1 1zM14.09 13.84H1.91a.7.7 0 0 0 0 1.4h12.18a.7.7 0 0 0 0-1.4z"/></g></svg><svg id="folder" data-name="Layer 1" viewBox="-1 -1 18 18" width="18" height="18" x="36" y="168"><defs><style>.bncls-1{fill:#fff}.bncls-2{fill:#c8d6dd}.bncls-3{fill:#d9e2e8}.bncls-4{fill:#6b95ab}.bncls-5{fill:none;stroke:#36708c;stroke-miterlimit:10}</style></defs><title>icon artboards patch 2 strokecenter</title><path class="bncls-1" d="M14.56 3.42h-7.5l-.93-.92H1.44a.93.93 0 0 0-.94.92V13.5h15V4.33a.93.93 0 0 0-.94-.91z"/><path class="bncls-2" d="M6 4l.82-.82-.69-.68H1.44a.93.93 0 0 0-.94.92V4H6z"/><path class="bncls-3" d="M0 10h16v4H0z"/><path class="bncls-4" d="M7 4L6 5H0V4h6l1-1v1z"/><path class="bncls-5" d="M14.56 3.42h-7.5l-.93-.92H1.44a.93.93 0 0 0-.94.92V13.5h15V4.33a.93.93 0 0 0-.94-.91z"/></svg><svg id="folder-add" data-name="Layer 1" viewBox="-1 -1 18 18" width="18" height="18" x="54" y="168"><defs><style>.bocls-1,.bocls-6{fill:#fff}.bocls-2{fill:#c8d6dd}.bocls-3{fill:#d9e2e8}.bocls-4{fill:#6b95ab}.bocls-5,.bocls-7{fill:none;stroke-miterlimit:10}.bocls-5{stroke:#36708c}.bocls-6{opacity:.6}.bocls-7{stroke:#004a70;stroke-width:2px}</style></defs><title>*icon artboards final</title><path class="bocls-1" d="M14.56 6.42H9l-.94-.92H3.37a.93.93 0 0 0-.94.92v9.08H15.5V7.33a.93.93 0 0 0-.94-.91z"/><path class="bocls-2" d="M7.94 7l.82-.82-.7-.68H3.37a.93.93 0 0 0-.94.92V7h5.5z"/><path class="bocls-3" d="M2.94 12H16v4H2.94z"/><path class="bocls-4" d="M8.94 7l-1 1H2V7h6l.94-1v1z"/><path class="bocls-5" d="M14.56 6.42H9l-.94-.92H3.37a.93.93 0 0 0-.94.92v9.08H15.5V7.33a.93.93 0 0 0-.94-.91z"/><path class="bocls-6" d="M2 5h3v2H2z"/><path class="bocls-7" d="M3 0v6M0 3h6"/></svg><svg id="fujitsu" data-name="Layer 1" viewBox="-1 -1 100.66 50" width="100.66" height="50" y="50"><defs><style>.bpcls-1{fill:#ed1c24}</style></defs><title>Fujitsu</title><path class="bpcls-1" d="M40.69 6.65a4.79 4.79 0 0 0-3.06-1 5 5 0 1 0 0 10 4.85 4.85 0 0 0 3.83-1.74v-2.8a6 6 0 0 1-2.38 2.32 3.71 3.71 0 0 1-1.45.31 3.11 3.11 0 0 1-3.16-3.12 3.15 3.15 0 0 1 3.16-3.14 3.19 3.19 0 0 1 2.22.92c.59.58 1.52 1.78 2 2.26a6.27 6.27 0 1 0-.35-8V6.4c.87-2.36 2.43-4.25 4.88-4.25a4.27 4.27 0 1 1-2.76 7.54c-.92-.72-1.94-2.24-2.89-3M0 17h13.71v3.8a2.66 2.66 0 0 0-2.19-1.51H5.18v6.59h6.88v3.49s-.22-1.11-1.88-1.12h-5v9a2.77 2.77 0 0 0 1.44 2.11H.09a2.57 2.57 0 0 0 1.37-2.11V19.33A3 3 0 0 0 0 17M34.46 17h7s-1.56.74-1.56 1.95v21c0 7.1-7.12 8.26-7.49 8.24.61-.39 3.56-2.91 3.57-8.24v-21C36 17.81 34.46 17 34.46 17M42.42 17h7s-1.55.75-1.55 2v18.27c0 1.31 1.55 2.13 1.55 2.13h-7S44 38.58 44 37.27V19c0-1.23-1.55-2-1.55-2M50.81 17h15.4l-1.31 4.06s-.39-1.71-1.87-1.71h-3.2v17.92c0 1.13 1.51 2.11 1.51 2.11h-6.86S56 38.5 56 37.27V19.35h-3.89c-1.09 0-2.66 2-2.66 2L50.81 17M91.92 17h6.74s-1.44.76-1.44 2v13.53c0 5.51-4.58 7.2-7.74 7.2s-8.08-1.73-8.07-7.2V19c0-1.21-1.49-2-1.49-2h6.94s-1.54.74-1.54 2v13.53c0 2.89 1.92 4.78 4.16 4.78s4-2 4-4.78V19c0-1.21-1.52-2-1.52-2M26.38 17h6.87s-1.46.8-1.46 2v13.52c0 5.53-4.78 7.27-8 7.27s-8.05-1.79-8.05-7.27V19c0-1.21-1.4-2-1.4-2h6.94s-1.61.79-1.61 2v13.52c0 2.86 1.91 4.84 4.15 4.85s4.05-2 4.05-4.85V19c0-1.21-1.48-2-1.48-2M77.86 20.58a4.25 4.25 0 0 0-3.78-1.71c-2.82 0-4.34 1.47-4.35 3.39 0 2.17 1.62 3 4.15 4.2s6 2.75 6 6.75c0 3.59-3.2 6.6-8.91 6.6a22.89 22.89 0 0 1-4.19-.58l-1.31-4.3A8.56 8.56 0 0 0 71 37.36c2.28 0 5-1.41 5-3.68 0-4.38-10.19-3.65-10.19-11 0-2.52 1.76-6.17 7.83-6.17a19.22 19.22 0 0 1 4.17.58v3.46"/></svg><svg id="help-info" viewBox="-1 -1 18 18" width="18" height="18" x="90" y="168"><style>.st0{fill:#231f20}.st1{fill-rule:evenodd;clip-rule:evenodd;fill:#575757}.st2{fill:#007cbb}.bqst3{fill:#747474}.st4,.st5{fill:none;stroke-miterlimit:10}.st4{stroke-linecap:round;stroke:#318700;stroke-width:1.4}.st5{stroke:#575757;stroke-width:1.3;stroke-linejoin:round}.st6{fill:#c92100}.st7{fill:#c72627}.st8{fill:#318700}.st9{fill:#fff}</style><path class="bqst3" d="M4.8 5.9s2.3-.4 3.7-.5c.9-.1 1.8.3 1.4 1.4-.4 1.1-2 6.2-2 6.2-.1.2-.1.5-.2.7 0 .1 0 .2.1.3.1.1.2.1.2.1.3 0 .6-.2.9-.4.7-.6 1.3-1.2 1.7-2l.9.4c-1.5 2.3-3.1 3.4-4.9 3.4-.5 0-1-.1-1.4-.4-.4-.3-.6-.8-.5-1.2 0-.3.1-.7.2-1 0 0 1.4-3.8 1.9-5.3.1-.4.2-1.1-.4-1.1-.6 0-1.2.1-1.7.2l.1-.8zM8.8.5c.5 0 1 .2 1.3.6.4.4.6.8.6 1.3s-.2 1-.6 1.3c-.7.7-1.9.7-2.7 0-.3-.3-.5-.8-.5-1.3s.2-1 .6-1.3c.3-.4.8-.6 1.3-.6"/></svg><svg id="help-info-hover" viewBox="-1 -1 18 18" width="18" height="18" x="108" y="168"><style>.st0{fill:#231f20}.st1{fill-rule:evenodd;clip-rule:evenodd;fill:#575757}.brst2{fill:#007cbb}.st3{fill:#747474}.st4,.st5{fill:none;stroke-miterlimit:10}.st4{stroke-linecap:round;stroke:#318700;stroke-width:1.4}.st5{stroke:#575757;stroke-width:1.3;stroke-linejoin:round}.st6{fill:#c92100}.st7{fill:#c72627}.st8{fill:#318700}.st9{fill:#fff}</style><path class="brst2" d="M4.8 5.9s2.3-.4 3.7-.5c.9-.1 1.8.3 1.4 1.4-.4 1.1-2 6.2-2 6.2-.1.2-.1.5-.2.7 0 .1 0 .2.1.3.1.1.2.1.2.1.3 0 .6-.2.9-.4.7-.6 1.3-1.2 1.7-2l.9.4c-1.5 2.3-3.1 3.4-4.9 3.4-.5 0-1-.1-1.4-.4-.4-.3-.6-.8-.5-1.2 0-.3.1-.7.2-1 0 0 1.4-3.8 1.9-5.3.1-.4.2-1.1-.4-1.1-.6 0-1.2.1-1.7.2l.1-.8zM8.8.5c.5 0 1 .2 1.3.6.4.4.6.8.6 1.3s-.2 1-.6 1.3c-.7.7-1.9.7-2.7 0-.3-.3-.5-.8-.5-1.3s.2-1 .6-1.3c.3-.4.8-.6 1.3-.6"/></svg><svg id="host" data-name="Layer 1" viewBox="-1 -1 18 18" width="18" height="18" x="126" y="168"><defs><style>.bscls-1{fill:#356f8c}.bscls-2{fill:#fff}.bscls-3{fill:#789aaf}.bscls-4{fill:#cbd9e0}</style></defs><title>vsphere 16x text-SVG-temp</title><path class="bscls-1" d="M12 0H2v15h10V0z"/><path class="bscls-2" d="M3 1h8v13H3z"/><path class="bscls-3" d="M4 2h6v1H4z"/><path class="bscls-4" d="M4 7h6v7H4z"/></svg><svg id="host-disconnected" data-name="Layer 1" viewBox="-1 -1 18 18" width="18" height="18" x="144" y="168"><defs><style>.btcls-1{fill:#36708c}.btcls-2{fill:#fff}.btcls-3{fill:#799aae}.btcls-4{fill:#cad8df}.btcls-5{fill:#e52127}</style></defs><title>icon artboards patch 2 strokecenter</title><path class="btcls-1" d="M11 0H1v15h10V0z"/><path class="btcls-2" d="M2 1h8v13H2z"/><path class="btcls-3" d="M3 2h6v1H3z"/><path class="btcls-4" d="M3 7h6v7H3z"/><path class="btcls-2" d="M11 15V6a5.49 5.49 0 0 0-3.73 9H11z"/><path class="btcls-5" d="M11.5 7A4.5 4.5 0 1 1 7 11.5 4.51 4.51 0 0 1 11.5 7"/><path class="btcls-2" d="M8 11h7v1H8z"/></svg><svg id="host-error" data-name="Layer 1" viewBox="-1 -1 18 18" width="18" height="18" x="162" y="168"><defs><style>.bucls-1{fill:#356f8c}.bucls-2{fill:#fff}.bucls-3{fill:#789aaf}.bucls-4{fill:#cbd9e0}.bucls-5{fill:#e81e25}</style></defs><title>vsphere 16x text-SVG-temp</title><path class="bucls-1" d="M12 0H2v15h10V0z"/><path class="bucls-2" d="M3 1h8v13H3z"/><path class="bucls-3" d="M4 2h6v1H4z"/><path class="bucls-4" d="M4 7h6v7H4z"/><path class="bucls-2" d="M12 6h-.5a5.5 5.5 0 0 0-4.24 9H12V6z"/><path class="bucls-5" d="M11.5 7A4.5 4.5 0 1 1 7 11.5 4.51 4.51 0 0 1 11.5 7"/><path class="bucls-2" d="M11 9h1v3h-1zM11 13h1v1h-1z"/></svg><svg id="host-maintenance" data-name="Layer 1" viewBox="-1 -1 18 18" width="18" height="18" x="196.89"><defs><style>.bvcls-1{fill:#36708c}.bvcls-2{fill:#fff}.bvcls-3{fill:#799aae}.bvcls-4{fill:#cad8df}.bvcls-5{fill:#ffdf24}.bvcls-6{fill:#221f1f}.bvcls-7{fill:#977d2e;opacity:.6}</style></defs><title>icon artboards patch 2 strokecenter</title><path class="bvcls-1" d="M12 0H2v15h10V0z"/><path class="bvcls-2" d="M3 1h8v13H3z"/><path class="bvcls-3" d="M4 2h6v1H4z"/><path class="bvcls-4" d="M4 7h6v7H4z"/><path class="bvcls-5" d="M3 4h8v5H3z"/><path class="bvcls-6" d="M11 4h-.25l-5 5h2L11 5.75V4zM6.25 4L3 7.25V9h.25l5-5h-2z"/><path class="bvcls-7" d="M3 8h8v1H3zM3 4h8v1H3z"/></svg><svg id="host-warning" data-name="Layer 1" viewBox="-1 -1 18 18" width="18" height="18" x="196.89" y="18"><defs><style>.bwcls-1{fill:#356f8c}.bwcls-2{fill:#fff}.bwcls-3{fill:#789aaf}.bwcls-4{fill:#cbd9e0}.bwcls-5{fill:#ffd00f}.bwcls-6{fill:#977d2e}.bwcls-7{fill:#221f1f}</style></defs><title>vsphere 16x text-SVG-temp</title><path class="bwcls-1" d="M12 0H2v15h10V0z"/><path class="bwcls-2" d="M3 1h8v13H3z"/><path class="bwcls-3" d="M4 2h6v1H4z"/><path class="bwcls-4" d="M4 7h6v7H4z"/><path class="bwcls-5" d="M11.07 6.34H10L5.58 14v1.14h9.71v-1.49l-4.22-7.31z"/><path class="bwcls-2" d="M12 15V4.53H9.84A.92.92 0 0 0 9 5l-5.06 8.84a.92.92 0 0 0-.12.46v.7H12z"/><path class="bwcls-6" d="M15.59 16H5.28v-2.12L9.83 6h1.42l4.34 7.53V16z"/><path class="bwcls-5" d="M5.88 14.76h9.11v-1.03L10.9 6.64h-.72l-4.3 7.44v.68z"/><path class="bwcls-7" d="M10 9h1v3h-1zM10 13h1v1h-1z"/></svg><svg id="hp" data-name="Layer 1" viewBox="-1 -1 50 50.02" width="50" height="50.02" x="120.89"><defs><style>.bxcls-1{fill:#0d0707}</style></defs><title>hp</title><path class="bxcls-1" d="M23.93.08a9.82 9.82 0 0 1 2.13 0A24 24 0 0 1 48 22.23a22.79 22.79 0 0 0 0 3.26 24.28 24.28 0 0 1-2.4 9 24 24 0 0 1-19.26 13.38 14 14 0 0 1-2.07.12 4 4 0 0 1-1.37-.07q2.53-7.12 5.1-14.23h5.56a3 3 0 0 0 2.74-1.91c1.57-4.41 3.17-8.81 4.69-13.24a3.44 3.44 0 0 0 .19-2.11 2.75 2.75 0 0 0-2-1.75 8.26 8.26 0 0 0-2.34-.16h-7.13l-.15.31Q23.8 31 18 47.23A24 24 0 0 1 .47 28.53a31.48 31.48 0 0 1-.47-4.4 25.39 25.39 0 0 1 1.72-9A23.94 23.94 0 0 1 18.65.62C14.77 11.38 11 22.18 7.1 32.94a2.68 2.68 0 0 0 .76 0h4.24c.19 0 .17-.27.25-.39 1.7-4.81 3.43-9.62 5.14-14.43a8 8 0 0 1 .34-.88h2.66c-1.86 5.21-3.7 10.43-5.59 15.64a1.71 1.71 0 0 0 .62.06h4.46c1.68-4.74 3.38-9.47 5.06-14.2a3.41 3.41 0 0 0-.18-3 2.88 2.88 0 0 0-2.35-1.21H18.8c1.69-4.81 3.45-9.62 5.13-14.45z"/><path class="bxcls-1" d="M33.79 17.35c.15-.17.41-.07.61-.09h2.06c-1.6 4.56-3.27 9.1-4.85 13.68-.89.06-1.79 0-2.68 0 1.63-4.51 3.24-9.05 4.86-13.59z"/></svg><svg id="ibm" data-name="Layer 1" viewBox="-1 -1 120.89 50" width="120.89" height="50"><defs><style>.bycls-1{fill:none}.bycls-2{fill:#4c83c3}.bycls-3{clip-path:url(#byclip-path)}</style><clipPath id="byclip-path"><path class="bycls-1" d="M0-.19h118.89v48H0z"/></clipPath></defs><title>IBM</title><path class="bycls-2" d="M118.89 3.23H99.1l1.22-3.42h18.57v3.42zM66.13-.19h18.38l1.2 3.42H66.14V-.19zM51.54-.19a13.21 13.21 0 0 1 7.9 3.42h-33.3V-.19zM0-.19h23.14v3.42H0V-.19zM118.89 9.63H96.83L98 6.23h20.86v3.4zM87.98 9.63H66.13v-3.4h20.66l1.19 3.4zM62 6.23a8.82 8.82 0 0 1 1 3.4H26.14v-3.4zM0 6.23h23.14v3.4H0v-3.4zM94.57 16.05l1.22-3.42 16.56.01v3.4l-17.78.01zM89.05 12.63l1.2 3.42h-17.6v-3.42h16.4zM63.29 12.63A11.13 11.13 0 0 1 62.8 16H52.71v-3.37zM6.45 12.65h9.95v3.4H6.45v-3.4zM32.84 12.63h9.93v3.42h-9.93v-3.42zM82.42 19.73v2.59h-9.77v-3.4h18.63l1.16 3.17 1.12-3.17h18.78v3.4h-9.73v-2.59l-.9 2.59H83.32l-.9-2.58zM32.84 18.92h28.5a12.8 12.8 0 0 1-2.83 3.4H32.84v-3.4zM6.45 18.92h9.95v3.4H6.45v-3.4zM102.61 25.32h9.73v3.4h-9.73v-3.4zM82.42 25.32h-9.77v3.39h9.78v-3.39zM100.64 25.32s-1.14 3.39-1.19 3.39H85.6s-1.22-3.41-1.22-3.4zM32.84 25.32h25.62a16.76 16.76 0 0 1 3.05 3.4H32.84v-3.4zM16.4 28.72v-3.4H6.47v3.39zM102.61 31.73h9.73v3.39h-9.73v-3.39zM72.65 31.73h9.77v3.39h-9.77v-3.39zM97.18 35.14s1.2-3.42 1.22-3.41H86.62l1.21 3.4h9.36zM32.84 35.12v-3.4h10.07v3.4zM62.93 31.72a9.84 9.84 0 0 1 .63 3.41H52.89v-3.41zM6.47 31.72h9.92v3.4H6.47v-3.4zM102.61 37.99h16.28v3.4h-16.28v-3.4zM66.13 37.99h16.29v3.4H66.13v-3.4z"/><g class="bycls-3"><path class="bycls-2" d="M94.99 41.39h-4.97l-1.19-3.4h7.31l-1.15 3.4zM0 38v3.4h23.12v-3.39z"/></g><path class="bycls-2" d="M63.14 38a7.3 7.3 0 0 1-1.29 3.4H26.14V38zM92.74 47.8h-.46l-1.16-3.4h2.81l-1.19 3.4zM102.61 44.4h16.28v3.41h-16.28V44.4zM26.14 47.8v-3.4h33.5A12.68 12.68 0 0 1 51 47.81H26.14"/><g class="bycls-3"><path class="bycls-2" d="M66.13 44.4h16.29v3.41H66.13V44.4zM23.12 44.41v3.39H0v-3.4z"/></g></svg><svg id="memory-summary" data-name="Layer 1" viewBox="-1 -1 26 26" width="26" height="26" x="128" y="100"><defs><style>.bzcls-1,.bzcls-2{fill:#89b085}.bzcls-2{stroke:#54815b;stroke-miterlimit:10}.bzcls-3{fill:#fff}.bzcls-4{fill:#eee28d}</style></defs><title>icon artboards patch 2 strokecenter</title><path class="bzcls-1" d="M24 10V4H0v6h1v2H0v7h10.94v-1H13v1h11v-7h-1v-2h1z"/><path class="bzcls-2" d="M23.5 10V4.5H.5V10h.96v2H.5v6.5h10.48v-.93h1.98v.93H23.5V12h-.96v-2h.96z"/><path class="bzcls-3" d="M4 7h4v7H4zM10 7h4v7h-4zM16 7h4v7h-4z"/><path class="bzcls-4" d="M2 16h1v2H2zM4 16h1v2H4zM6 16h1v2H6zM8 16h1v2H8zM15 16h1v2h-1zM17 16h1v2h-1zM19 16h1v2h-1zM21 16h1v2h-1z"/></svg><svg id="network" data-name="Layer 1" viewBox="-1 -1 18 18" width="18" height="18" x="196.89" y="90"><defs><style>.cacls-1{fill:#9ab6c5}.cacls-2{fill:#4f809b}.cacls-3{fill:#356f8c}.cacls-4{fill:#fff}.cacls-5{fill:#ccdae1}.cacls-6{fill:#6c96ac}.cacls-7{fill:#225d80}</style></defs><title>vsphere 16x text-SVG-temp</title><path class="cacls-1" d="M5 11h2v5H5z"/><path class="cacls-2" d="M5 11h2v2H5z"/><path class="cacls-1" d="M0 14h12v2H0z"/><path class="cacls-3" d="M0 15h12v1H0z"/><circle class="cacls-4" cx="6" cy="6" r="5.7"/><path class="cacls-5" d="M6 7a6.05 6.05 0 0 1-4.63-2.2A4.76 4.76 0 0 0 1.2 6a4.8 4.8 0 1 0 9.6 0 4.76 4.76 0 0 0-.17-1.2C10.12 5.87 8.23 7 6 7z"/><path class="cacls-6" d="M3.38 6A7.87 7.87 0 0 1 .3 5.38L.45 5c5.23 2.21 9.64-2.35 9.68-2.39l.29.31A10.89 10.89 0 0 1 3.38 6zM3.19 11.11v-.41c6 0 8.2-5.83 8.07-6.09l.39.15a9.22 9.22 0 0 1-8.46 6.35z"/><path class="cacls-6" d="M9.93 9.85a8.14 8.14 0 0 1-8.48-7.1l.39-.07c1.34 7.54 8.65 6.75 8.73 6.74v.4a6.73 6.73 0 0 1-.64.03z"/><path class="cacls-6" d="M9.51 10.76l-.39-.08c1.61-7.49-5.46-9.52-5.53-9.54L3.7.75c.07.02 7.5 2.16 5.81 10.01z"/><circle class="cacls-6" cx="8" cy="4" r="1" transform="rotate(-75.01 8 3.996)"/><circle class="cacls-6" cx="3" cy="6" r="1" transform="rotate(-75.01 3.003 6)"/><circle class="cacls-6" cx="7" cy="10" r="1" transform="rotate(-75.01 6.997 9.997)"/><path class="cacls-7" d="M6 .6A5.4 5.4 0 1 1 .6 6 5.41 5.41 0 0 1 6 .6M6 0a6 6 0 1 0 6 6 6 6 0 0 0-6-6z"/></svg><svg id="network-24x" data-name="Layer 1" viewBox="-1 -1 26 26" width="26" height="26" x="170.89"><defs><style>.cbcls-1{fill:#fff}.cbcls-2{fill:#c8d6dd}.cbcls-3{fill:#799aae}.cbcls-4,.cbcls-5{fill:none;stroke-miterlimit:10}.cbcls-4{stroke:#799aae}.cbcls-5{stroke:#004a70;stroke-width:.8px}</style></defs><title>icon artboards patch 2 strokecenter</title><path class="cbcls-1" d="M12 2.5a7.42 7.42 0 1 0 7.42 7.42A7.42 7.42 0 0 0 12 2.5z"/><path class="cbcls-2" d="M17.12 4.56a8.41 8.41 0 0 1-10.74 10.2 7.41 7.41 0 1 0 10.74-10.2z"/><path class="cbcls-3" d="M11.2 19h2v3h-2z"/><path class="cbcls-3" d="M19.58 23H4.42A1.27 1.27 0 0 1 3 22a1.27 1.27 0 0 1 1.42-1h15.16A1.27 1.27 0 0 1 21 22a1.27 1.27 0 0 1-1.42 1z"/><path class="cbcls-4" d="M10.31 2.67a7.51 7.51 0 0 1 5.12 4.15c1.85 4.42-.79 9.26-.79 9.26"/><path class="cbcls-4" d="M5.84 7.28a4.92 4.92 0 0 0 2.64 3.52c5 2.72 10.09 2.74 9.68 1.76"/><path class="cbcls-4" d="M15.52 2.88A11.21 11.21 0 0 1 12 8.16a13.32 13.32 0 0 1-7 2.64"/><circle class="cbcls-3" cx="14.98" cy="5.86" r="1.42" transform="rotate(-15.06 14.966 5.865)"/><circle class="cbcls-3" cx="8.82" cy="10.46" r="1.42" transform="rotate(-15.06 8.819 10.441)"/><circle class="cbcls-3" cx="15.86" cy="12.9" r="1.42" transform="rotate(-12.51 15.851 12.91)"/><path class="cbcls-5" d="M12 2.5a7.42 7.42 0 1 0 7.42 7.42A7.42 7.42 0 0 0 12 2.5z"/></svg><svg id="network-error" data-name="Layer 1" viewBox="-1 -1 18 18" width="18" height="18" x="170.89" y="52"><defs><style>.cccls-1{fill:#9ab6c5}.cccls-2{fill:#4f809b}.cccls-3{fill:#356f8c}.cccls-4{fill:#fff}.cccls-5{fill:#ccdae1}.cccls-6{fill:#6c96ac}.cccls-7{fill:#225d80}.cccls-8{fill:#e81e25}</style></defs><title>vsphere 16x text-SVG-temp</title><path class="cccls-1" d="M5 11h2v5H5z"/><path class="cccls-2" d="M5 11h2v2H5z"/><path class="cccls-1" d="M0 14h12v2H0z"/><path class="cccls-3" d="M0 15h12v1H0z"/><circle class="cccls-4" cx="6" cy="6" r="5.7"/><path class="cccls-5" d="M6 7a6.05 6.05 0 0 1-4.63-2.2A4.76 4.76 0 0 0 1.2 6a4.8 4.8 0 1 0 9.6 0 4.76 4.76 0 0 0-.17-1.2C10.12 5.87 8.23 7 6 7z"/><path class="cccls-6" d="M3.38 6A7.87 7.87 0 0 1 .3 5.38L.45 5c5.23 2.21 9.64-2.35 9.68-2.39l.29.31A10.89 10.89 0 0 1 3.38 6zM3.19 11.11v-.41c6 0 8.2-5.83 8.07-6.09l.39.15a9.22 9.22 0 0 1-8.46 6.35z"/><path class="cccls-6" d="M9.93 9.85a8.14 8.14 0 0 1-8.48-7.1l.39-.07c1.34 7.54 8.65 6.75 8.73 6.74v.4a6.73 6.73 0 0 1-.64.03z"/><path class="cccls-6" d="M9.51 10.76l-.39-.08c1.61-7.49-5.46-9.52-5.53-9.54L3.7.75c.07.02 7.5 2.16 5.81 10.01z"/><circle class="cccls-6" cx="8" cy="4" r="1" transform="rotate(-75.01 8 3.996)"/><circle class="cccls-6" cx="3" cy="6" r="1" transform="rotate(-75.01 3.003 6)"/><circle class="cccls-6" cx="7" cy="10" r="1" transform="rotate(-75.01 6.997 9.997)"/><path class="cccls-7" d="M6 .6A5.4 5.4 0 1 1 .6 6 5.41 5.41 0 0 1 6 .6M6 0a6 6 0 1 0 6 6 6 6 0 0 0-6-6z"/><path class="cccls-4" d="M12 6h-.5a5.5 5.5 0 0 0-3.16 10H12v-2H7v-2.09A6 6 0 0 0 12 6z"/><path class="cccls-8" d="M11.5 7A4.5 4.5 0 1 1 7 11.5 4.51 4.51 0 0 1 11.5 7"/><path class="cccls-4" d="M11 9h1v3h-1zM11 13h1v1h-1z"/></svg><svg id="network-warning" data-name="Layer 1" viewBox="-1 -1 18 18" width="18" height="18" x="196.89" y="144"><defs><style>.cdcls-1{fill:#9ab6c5}.cdcls-2{fill:#4f809b}.cdcls-3{fill:#356f8c}.cdcls-4{fill:#fff}.cdcls-5{fill:#ccdae1}.cdcls-6{fill:#6c96ac}.cdcls-7{fill:#225d80}.cdcls-8{fill:#ffd110}.cdcls-9{fill:#997c00}.cdcls-10{fill:#231f20}</style></defs><title>vsphere 16x text-SVG-temp</title><path class="cdcls-1" d="M5 11h2v5H5z"/><path class="cdcls-2" d="M5 11h2v2H5z"/><path class="cdcls-1" d="M0 14h12v2H0z"/><path class="cdcls-3" d="M0 15h12v1H0z"/><circle class="cdcls-4" cx="6" cy="6" r="5.7"/><path class="cdcls-5" d="M6 7a6.05 6.05 0 0 1-4.63-2.2A4.76 4.76 0 0 0 1.2 6a4.8 4.8 0 1 0 9.6 0 4.76 4.76 0 0 0-.17-1.2C10.12 5.87 8.23 7 6 7z"/><path class="cdcls-6" d="M3.38 6A7.87 7.87 0 0 1 .3 5.38L.45 5c5.23 2.21 9.64-2.35 9.68-2.39l.29.31A10.89 10.89 0 0 1 3.38 6zM3.19 11.11v-.41c6 0 8.2-5.83 8.07-6.09l.39.15a9.22 9.22 0 0 1-8.46 6.35z"/><path class="cdcls-6" d="M9.93 9.85a8.14 8.14 0 0 1-8.48-7.1l.39-.07c1.34 7.54 8.65 6.75 8.73 6.74v.4a6.73 6.73 0 0 1-.64.03z"/><path class="cdcls-6" d="M9.51 10.76l-.39-.08c1.61-7.49-5.46-9.52-5.53-9.54L3.7.75c.07.02 7.5 2.16 5.81 10.01z"/><circle class="cdcls-6" cx="8" cy="4" r="1" transform="rotate(-75.01 8 3.996)"/><circle class="cdcls-6" cx="3" cy="6" r="1" transform="rotate(-75.01 3.003 6)"/><circle class="cdcls-6" cx="7" cy="10" r="1" transform="rotate(-75.01 6.997 9.997)"/><path class="cdcls-7" d="M6 .6A5.4 5.4 0 1 1 .6 6 5.41 5.41 0 0 1 6 .6M6 0a6 6 0 1 0 6 6 6 6 0 0 0-6-6z"/><path class="cdcls-8" d="M11.07 6.34H10L5.58 14v1.14h9.71v-1.49l-4.22-7.31z"/><path class="cdcls-4" d="M3.81 14.3v1.32a.91.91 0 0 0 .09.38H12v-2H3.87a.92.92 0 0 0-.06.3zM11.08 4.53H9.84A.92.92 0 0 0 9 5l-4 6.92a6 6 0 0 0 6.87-6.85V5a.92.92 0 0 0-.79-.47z"/><path class="cdcls-9" d="M15.59 16H5.28v-2.12L9.83 6h1.41l4.35 7.53V16z"/><path class="cdcls-8" d="M5.88 14.76h9.11v-1.03L10.9 6.64h-.72l-4.3 7.44v.68z"/><path class="cdcls-10" d="M10 9h1v3h-1zM10 13h1v1h-1z"/></svg><svg id="ovf-deploy" data-name="Layer 1" viewBox="-1 -1 18 18" width="18" height="18" x="196.89" y="162"><defs><style>.cecls-1{fill:#d9e2e8}.cecls-2,.cecls-5{fill:#fff}.cecls-3{fill:#789bb0}.cecls-4{fill:#508098}.cecls-5{opacity:.6}.cecls-6{fill:#004a70}</style></defs><title>*icon artboards final pg2</title><path class="cecls-1" d="M9.51 15.56l-6.49-3.18V3.4l6.49 2.64v9.52z"/><path class="cecls-2" d="M9.51 6.04L3.02 3.4 9.51.75 16 3.4 9.51 6.04z"/><path class="cecls-3" d="M9.51 15.56L16 12.38V3.4L9.51 6.04v9.52z"/><path class="cecls-4" d="M9.51 1.83L15 4.07v7.68l-5.49 2.7L4 11.75V4.07l5.51-2.24m0-1.08L3 3.4v9l6.49 3.19L16 12.38v-9L9.51.75z"/><path class="cecls-5" d="M3.01 3.4V7H5V4h2V1.78L3.01 3.4z"/><path class="cecls-6" d="M6 2H4V0H2v2H0v2h2v2h2V4h2V2z"/></svg><svg id="plugin" viewBox="-1 -1 18 18" width="18" height="18" y="186"><style>.cfst0{fill:#36708c}.cfst1{fill:#d9e2e8}</style><title>ic_plugin</title><path class="cfst0" d="M8.5 0C7.1 0 6 1.1 6 2.5V3H3v4h-.5C1.1 7 0 8.1 0 9.5S1.1 12 2.5 12H3v3h13v-4h-1.5c-.8 0-1.5-.7-1.5-1.5S13.7 8 14.5 8H16V3h-5v-.5C11 1.1 9.9 0 8.5 0z"/><path class="cfst1" d="M8.5 1c.8 0 1.5.7 1.5 1.5V4h5v3h-.5C13.1 7 12 8.1 12 9.5s1.1 2.5 2.5 2.5h.5v2H4v-3H2.5C1.7 11 1 10.3 1 9.5S1.7 8 2.5 8H4V4h3V2.5C7 1.7 7.7 1 8.5 1"/></svg><svg id="precheck-error" data-name="Layer 1" viewBox="-1 -1 18 18" width="18" height="18" x="18" y="186"><defs><style>.cgcls-1{fill:#ed1c24}.cgcls-2{fill:#fff}</style></defs><title>Alert 16x</title><circle class="cgcls-1" cx="8" cy="8" r="8"/><path class="cgcls-2" d="M7 3h2v6H7zM7 11h2v2H7z"/></svg><svg id="precheck-ok" data-name="Layer 1" viewBox="-1 -1 18 18" width="18" height="18" x="36" y="186"><defs><style>.chcls-1{fill:#5dab46}.chcls-2{fill:#fff}</style></defs><title>OK 16x</title><circle class="chcls-1" cx="8" cy="8" r="8"/><path class="chcls-2" d="M11.21 4.03L7.36 9.17 4.79 6.6 3.5 7.89l1.29 1.28 2.57 2.57 5.14-6.42v-.01l-1.29-1.28z"/></svg><svg id="precheck-warning" data-name="Layer 1" viewBox="-1 -1 18 18" width="18" height="18" x="54" y="186"><defs><style>.cicls-1{fill:#987d2e}.cicls-2{fill:#ffd111}.cicls-3{fill:#221f1f}</style></defs><title>Warning 16x</title><path class="cicls-1" d="M8 .55a2.37 2.37 0 0 0-2.1 1.26L.21 12.51A2.38 2.38 0 0 0 2.31 16h11.4a2.38 2.38 0 0 0 2.1-3.49L10.1 1.81A2.37 2.37 0 0 0 8 .55z"/><path class="cicls-2" d="M9.22 2.28a1.38 1.38 0 0 0-2.43 0L1.09 13a1.38 1.38 0 0 0 1.21 2h11.4a1.38 1.38 0 0 0 1.22-2z"/><path class="cicls-3" d="M7 11h2v2H7zM7 4h2v6H7z"/></svg><svg id="remove" viewBox="-1 -1 18 18" width="18" height="18" x="72" y="186"><style>.cjst0{fill:none;stroke:#747474;stroke-width:2;stroke-linecap:round;stroke-miterlimit:10}</style><g id="cjLayer_1_1_"><path class="cjst0" d="M2.6 2.4l11.1 11.2M2.6 13.6L13.7 2.4"/></g></svg><svg id="rescan-hba" data-name="Layer 2" viewBox="-1 -1 18 18" width="18" height="18" x="90" y="186"><defs><style>.ckcls-1{fill:#747474}.ckcls-2{fill:#fff}</style></defs><title>storage icon work</title><path class="ckcls-1" d="M11 6.93V0H0v11h6.89A4.43 4.43 0 0 1 11 6.93z"/><path class="ckcls-1" d="M15.71 14.72l-1.31-1.31a.67.67 0 0 0-.11-.07 3.59 3.59 0 1 0-.95 1 .66.66 0 0 0 .07.11l1.31 1.31a.7.7 0 0 0 1-1zm-4.4-.9a2.47 2.47 0 1 1 2.48-2.47 2.48 2.48 0 0 1-2.48 2.48z"/><path class="ckcls-2" d="M5.12 8.44l-3-3 3-2.99 1.5 1.53h1.4l-2.9-2.94-4.4 4.4 4.4 4.4L7.96 7h-1.4L5.12 8.44z"/><path class="ckcls-2" d="M6 5h3.06v1H6z"/></svg><svg id="rescan-storage" data-name="Layer 2" viewBox="-1 -1 18 18" width="18" height="18" x="108" y="186"><defs><style>.clcls-1{fill:#747474}</style></defs><title>storage icon work</title><path class="clcls-1" d="M15.71 14.72l-1.31-1.31a.67.67 0 0 0-.11-.07 3.59 3.59 0 1 0-.95 1 .66.66 0 0 0 .07.11l1.31 1.31a.7.7 0 0 0 1-1zm-4.4-.9a2.47 2.47 0 1 1 2.48-2.47 2.48 2.48 0 0 1-2.48 2.48zM5.08 2.08h3.75V3H5.08zM5.08 4h3.75v.92H5.08z"/><path class="clcls-1" d="M3 0v13h4.18a4.43 4.43 0 0 1-.26-1H4V1h6v6.09a4.42 4.42 0 0 1 1-.19V0z"/><path class="clcls-1" d="M15.71 14.72l-1.31-1.31a.67.67 0 0 0-.11-.07 3.59 3.59 0 1 0-.95 1 .66.66 0 0 0 .07.11l1.31 1.31a.7.7 0 0 0 1-1zm-4.4-.9a2.47 2.47 0 1 1 2.48-2.47 2.48 2.48 0 0 1-2.48 2.48z"/></svg><svg id="resource-pool" data-name="Layer 1" viewBox="-1 -1 18 18" width="18" height="18" x="126" y="186"><defs><style>.cmcls-1{fill:#b1c8d4}.cmcls-2{fill:#d9e2e8}.cmcls-3,.cmcls-4{fill:none;stroke:#36708c;stroke-miterlimit:10}.cmcls-3{stroke-width:.6px}.cmcls-4{stroke-width:.8px}</style></defs><title>icon artboards patch 2 strokecenter</title><circle class="cmcls-1" cx="7" cy="8" r="6.7"/><path class="cmcls-2" d="M6.92 7.94l-4.61 4.81a6.69 6.69 0 0 0 11.3-4.81H6.92z"/><path class="cmcls-3" d="M13.61 7.6H6.92l-4.61 4.8"/><circle class="cmcls-4" cx="7" cy="8" r="6.7"/></svg><svg id="roles-clone" viewBox="-1 -1 18 18" width="18" height="18" x="144" y="186"><style>.cnst0{fill:#fff;stroke:#747474;stroke-linejoin:round}.cnst1{fill:#747474}.cnst2{fill:#fff;stroke:#747474;stroke-miterlimit:10}</style><title>CLONE ROLES</title><path class="cnst0" d="M4.5 3.5h9c.6 0 1 .4 1 1v10c0 .6-.4 1-1 1h-9c-.6 0-1-.4-1-1v-10c0-.6.4-1 1-1z"/><path class="cnst0" d="M1.5 1.5h9c.6 0 1 .4 1 1v10c0 .6-.4 1-1 1h-9c-.6 0-1-.4-1-1v-10c0-.6.4-1 1-1z"/><circle class="cnst1" cx="6" cy="6.6" r="2.1"/><path class="cnst1" d="M6.7 9.7H5.6c-1.8 0-3.3 1.5-3.3 3.3H10c0-1.8-1.5-3.3-3.3-3.3z"/><path class="cnst2" d="M4.4.4h3v3h-3z"/></svg><svg id="roles-clone~hover" data-name="Layer 1" viewBox="-1 -1 18 18" width="18" height="18" x="162" y="186"><defs><style>.cocls-1{fill:#fff;stroke:#225d80;stroke-linejoin:round}.cocls-2{fill:#789bb0}.cocls-3{fill:#abcddd}.cocls-4{fill:none;stroke:#789bb0;stroke-miterlimit:10}</style></defs><title>CLONE ROLES</title><rect class="cocls-1" x="3.5" y="3.5" width="11" height="12" rx="1" ry="1"/><rect class="cocls-1" x=".5" y="1.5" width="11" height="12" rx="1" ry="1"/><circle class="cocls-2" cx="5.98" cy="6.56" r="2.1"/><path class="cocls-2" d="M6.7 9.7H5.6A3.31 3.31 0 0 0 2.3 13H10a3.31 3.31 0 0 0-3.3-3.3z"/><path class="cocls-3" d="M4.5 0h3v3h-3z"/><path class="cocls-4" d="M4.44 3V.38h3.03V3"/></svg><svg id="rules-profile" viewBox="-1 -1 18 18" width="18" height="18" x="180" y="186"><style>.cpst0{fill:#37728e}.cpst1{fill:#fff}.cpst2{fill:#35718e}.cpst3{fill:#cbdae0}.cpst4{fill:#799baf}.cpst5{fill:none;stroke:#799baf;stroke-miterlimit:10}</style><title>Artboard 67</title><path class="cpst0" d="M0 0h14v15H0z"/><path class="cpst1" d="M1.1 1H13v13H1.1z"/><path class="cpst2" d="M13 16H9c-1.8 0-3-.5-3-2v-2h1V8c-.1-1 .6-1.9 1.5-2H13c1-.1 1.9.5 2 1.5V14c.1 1-.5 1.9-1.5 2H13zm-6-3c0 1.4-.1 2.1 1 2h5c1 0 1 0 1-1V8c0-.8-.1-1-1-1H9c-.9 0-1 .2-1 1v5H7z"/><path class="cpst1" d="M7 13c0 1.4.1 2 .6 2H13c.7 0 1 0 1-1V8c0-.8-.1-1-1-1H9c-.9 0-1 .2-1 1v5H7z"/><path class="cpst3" d="M8 13H7c0 2 0 2 1 2v-2z"/><path class="cpst4" d="M9 10h4v1H9zM9 12h4v1H9z"/><path class="cpst2" d="M14 6H9v3h7V8c0-1.3-.2-2-2-2zm1 2h-5V7h4c.5-.1.9.3 1 .7V8z"/><path class="cpst3" d="M15 8h-5V7h5v1z"/><path class="cpst4" d="M8 4.1h4V5H8z"/><path class="cpst5" d="M6.7 3.4L4 6.1 2.4 4.4M6.7 8.4L4 11.1 2.4 9.4"/></svg><svg id="scsi-adapter" data-name="Layer 2" viewBox="-1 -1 18 18" width="18" height="18" x="214.89"><defs><style>.cqcls-1{fill:#508098}.cqcls-2{fill:#cce5f1}</style></defs><title>storage icon work</title><path class="cqcls-1" d="M14 12.83A1.17 1.17 0 0 1 12.83 14H1.17A1.17 1.17 0 0 1 0 12.83V1.17A1.17 1.17 0 0 1 1.17 0h11.66A1.17 1.17 0 0 1 14 1.17z"/><path class="cqcls-2" d="M9.2 9l-2.16 2.15-4.13-4.13 4.13-4.13 2.09 2.09h2.04L7.04.85.88 7.02l6.16 6.17L11.23 9H9.2z"/><path class="cqcls-2" d="M7.01 6.04H14v1.67H7.01z"/></svg><svg id="scsi-adapter-warning" data-name="Layer 2" viewBox="-1 -1 18 18" width="18" height="18" x="214.89" y="18"><defs><style>.crcls-1{fill:#508098}.crcls-2{fill:#fff}.crcls-3{fill:#cce5f1}.crcls-4{fill:#977d2e}.crcls-5{fill:#ffd00f}.crcls-6{fill:#221f1f}</style></defs><title>storage icon work</title><path class="crcls-1" d="M14 12.83A1.17 1.17 0 0 1 12.83 14H1.17A1.17 1.17 0 0 1 0 12.83V1.17A1.17 1.17 0 0 1 1.17 0h11.66A1.17 1.17 0 0 1 14 1.17z"/><path class="crcls-2" d="M12.79 6a2.64 2.64 0 0 0-4.58 0l-3.97 7a2.62 2.62 0 0 0-.32 1h8.91A1.17 1.17 0 0 0 14 12.83V8.15z"/><path class="crcls-3" d="M5.92 10l-3-3L7 2.89 9.13 5h.25a2.61 2.61 0 0 1 1.12-.27 2.58 2.58 0 0 1 .46.06L7 .85.88 7l4.3 4.3z"/><path class="crcls-4" d="M15.9 13.47l-4-6.94a1.64 1.64 0 0 0-2.84 0l-4 6.94a1.64 1.64 0 0 0 1.42 2.45h8a1.64 1.64 0 0 0 1.42-2.45z"/><path class="crcls-5" d="M10 7.05L6 14a.64.64 0 0 0 .55 1h8a.64.64 0 0 0 .55-1l-4-6.94a.64.64 0 0 0-1.1-.01z"/><path class="crcls-6" d="M10 9h1v3h-1zM10 13h1v1h-1z"/></svg><svg id="status-error" data-name="Layer 1" viewBox="-1 -1 18 18" width="18" height="18" x="214.89" y="36"><defs><style>.cscls-1{fill:#e62700;stroke:#ce1d00;stroke-miterlimit:10;stroke-width:.8px}.cscls-2{fill:#ffebec}</style></defs><title>icon artboards patch 2 strokecenter</title><circle class="cscls-1" cx="8" cy="7.9" r="6.2"/><path class="cscls-2" d="M7 4h2v5H7zM7 10h2v2H7z"/></svg><svg id="status-ok" data-name="Layer 1" viewBox="-1 -1 18 18" width="18" height="18" x="214.89" y="54"><defs><style>.ctcls-1{fill:#62a420}</style></defs><title>icon artboards patch 2 strokecenter</title><path class="ctcls-1" d="M5.27 12.67h-.05a.8.8 0 0 1-.59-.32l-3-4a.8.8 0 0 1 1.28-1l2.48 3.28 7.28-7.41a.8.8 0 0 1 1.14 1.12l-7.97 8.09a.8.8 0 0 1-.57.24z"/></svg><svg id="status-unknown" data-name="Layer 1" viewBox="-1 -1 18 18" width="18" height="18" x="214.89" y="72"><defs><style>.cucls-1{fill:#7ca2b4}</style></defs><title>icon artboards patch 2 strokecenter</title><path class="cucls-1" d="M6.21 12.8A1.22 1.22 0 1 1 7.45 14a1.23 1.23 0 0 1-1.24-1.2zM7.92 3.26a4.08 4.08 0 0 0-3.26 1.43l.7.91a2.8 2.8 0 0 1 2.45-1.19 1.56 1.56 0 0 1 1.86 1.42c0 1.65-2.78 1.86-2.75 3.83v.84h1.13v-.77C8 8.21 11 8 11 5.62c0-1.34-1.19-2.39-3.08-2.36z"/></svg><svg id="status-warning" data-name="Layer 1" viewBox="-1 -1 18 18" width="18" height="18" x="214.89" y="90"><defs><style>.cvcls-1{fill:#e0b025}.cvcls-2{fill:#fddc0d}.cvcls-3{fill:#727272}</style></defs><title>icon artboards patch 2 strokecenter</title><path class="cvcls-1" d="M7.9.69a.9.9 0 0 0-.79.47l-7 12.42A.94.94 0 0 0 .91 15h14a.93.93 0 0 0 .77-1.4l-7-12.44A.9.9 0 0 0 7.9.69z"/><path class="cvcls-2" d="M7.9 1.49a.14.14 0 0 1 .1.08L15 14a.13.13 0 0 1 0 .13.12.12 0 0 1-.11.07h-14a.13.13 0 0 1-.12-.07.14.14 0 0 1 0-.14l7-12.42a.14.14 0 0 1 .13-.08"/><path class="cvcls-3" d="M7 5h2v5H7zM7 11h1.85a.15.15 0 0 1 .15.15V13H7v-2z"/></svg><svg viewBox="-1 -1 18 18" width="18" height="18" id="storage-device-mount" x="214.89" y="108"><defs><style>.cwb5a8feee-f345-4c26-b8c0-402857766d8e{fill:#747474}</style></defs><title>ic</title><g id="cw505461ae-13fb-46dc-9d93-ad5388e6f794" data-name="Layer 2"><path class="cwb5a8feee-f345-4c26-b8c0-402857766d8e" d="M11.67 7.3A4.36 4.36 0 1 0 16 11.67a4.37 4.37 0 0 0-4.33-4.37zm0 7.13a2.76 2.76 0 1 1 2.76-2.76 2.77 2.77 0 0 1-2.76 2.76z"/><path class="cwb5a8feee-f345-4c26-b8c0-402857766d8e" d="M1 12.94v-2.31a13.34 13.34 0 0 0 5.22 1 5.5 5.5 0 0 1 .1-1c-3.22-.1-5-.87-5.33-1.24V7.12A14.33 14.33 0 0 0 7 8.18h.56a5.53 5.53 0 0 1 1.26-1.09c-.56 0-1.15.09-1.82.09-3.65 0-5.69-.86-6-1.26V3.61a14.33 14.33 0 0 0 6 1.06 14.18 14.18 0 0 0 6-1.07v2.32a1.81 1.81 0 0 1-.61.39 5.45 5.45 0 0 1 1.61.45V2.18C14 1 10.87 0 7 0S0 1 0 2.18V13c0 1.21 3.13 2.18 7 2.18h.43a5.51 5.51 0 0 1-.63-1c-3.52-.02-5.49-.85-5.8-1.24zM1 2.26C1.31 1.86 3.35 1 7 1s5.69.86 6 1.26v.15c-.31.4-2.35 1.26-6 1.26s-5.69-.86-6-1.26z"/></g></svg><svg id="storage-device-unmount" viewBox="-1 -1 18 18" width="18" height="18" x="214.89" y="126"><style>.cxst0{fill:#747474}</style><title>new</title><g id="cx_x35_3c376db-e847-4cd6-be6c-8d88e8bca285"><path class="cxst0" d="M6.1 14.2C3 14 1.3 13.3 1 12.9v-2.3c1.9.8 3.9 1.1 6 1.1h.9l.7-.7-.3-.3H7c-3.7 0-5.7-.9-6-1.3V7.1c1.6.7 3.4 1 5.1 1-.1-.3-.1-.7 0-1-3-.1-4.8-.8-5.1-1.2V3.6c1.9.8 3.9 1.1 6 1.1 2.1.1 4.1-.3 6-1.1v2.3c-.2.3-1.4.9-3.5 1.1l.9.9c.6-.1 1.2-.2 1.8-.4l.9-.9c.2-.2.6-.4.9-.5V2.2C14 1 10.9 0 7 0S0 1 0 2.2V13c0 1.1 2.8 2.1 6.4 2.2-.2-.3-.3-.7-.3-1zM1 2.3C1.3 1.9 3.3 1 7 1s5.7.9 6 1.3v.2c-.3.4-2.4 1.3-6 1.3s-5.7-1-6-1.4v-.1z"/><path class="cxst0" d="M14.8 13.7L12.1 11l2.7-2.7c.3-.3.3-.8 0-1.1-.3-.3-.8-.3-1.1 0L11 9.9 8.4 7.2c-.4-.3-.9-.3-1.2 0-.3.3-.3.8 0 1.1L9.9 11l-2.7 2.7c-.3.3-.4.8-.1 1.1.3.3.8.4 1.1.1l.1-.1 2.7-2.7 2.7 2.7c.3.3.8.4 1.1.1.3-.3.4-.8 0-1.2.1 0 0 0 0 0z"/></g></svg><svg id="storage-summary" data-name="Layer 1" viewBox="-1 -1 26 26" width="26" height="26" x="170.89" y="26"><defs><style>.cycls-1{fill:#dbecee}.cycls-2{fill:#9ab3b9}.cycls-3{fill:#fff}.cycls-4,.cycls-5,.cycls-6{fill:none;stroke-miterlimit:10}.cycls-4{stroke:#73908f}.cycls-5{stroke:#9ab3b9}.cycls-6{stroke:#728e8e}</style></defs><title>icon artboards patch 2 strokecenter</title><path class="cycls-1" d="M20.5 4.87C19.9 3.48 16.33 2.4 12 2.4S4.1 3.48 3.5 4.87h-.1v15.26h.1c.6 1.4 4.17 2.47 8.5 2.47s7.9-1.08 8.5-2.47h.1V4.87h-.1z"/><path class="cycls-2" d="M15.67 2.68v19.64c2.56-.41 4.42-1.22 4.84-2.2h.1V4.87h-.11c-.41-.97-2.28-1.79-4.83-2.19z"/><ellipse class="cycls-3" cx="11.83" cy="5" rx="8.5" ry="2.58"/><path class="cycls-4" d="M20.5 4.42c0 1.74-3.81 3.15-8.5 3.15S3.5 6.16 3.5 4.42"/><path class="cycls-5" d="M20.5 9.22c0 1.74-3.81 3.15-8.5 3.15S3.5 11 3.5 9.22M20.5 14.22c0 1.74-3.81 3.15-8.5 3.15S3.5 16 3.5 14.22"/><path class="cycls-6" d="M20.5 4.87C19.9 3.48 16.33 2.4 12 2.4S4.1 3.48 3.5 4.87h-.1v15.26h.1c.6 1.4 4.17 2.47 8.5 2.47s7.9-1.08 8.5-2.47h.1V4.87h-.1z"/></svg><svg viewBox="-1 -1 18 18" width="18" height="18" id="storage-system-refresh" x="214.89" y="162"><defs><style>.czced7672c-4971-4510-bb5b-acc2aa12e336{fill:#747474}</style></defs><title>new</title><g id="czff78562b-189a-4daf-aa96-e7473d8d784c" data-name="Layer 2"><path class="czced7672c-4971-4510-bb5b-acc2aa12e336" d="M1 12.94v-2.31a13.22 13.22 0 0 0 5.14 1v-.11a5.36 5.36 0 0 1 .08-.9C3.07 10.55 1.29 9.8 1 9.43V7.12a14.33 14.33 0 0 0 6 1.06h.34a5.44 5.44 0 0 1 1.14-1c-.46 0-.95.05-1.48.05-3.65 0-5.69-.86-6-1.26V3.61a14.33 14.33 0 0 0 6 1.06 14.18 14.18 0 0 0 6-1.07v2.32a1.63 1.63 0 0 1-.53.35 5.34 5.34 0 0 1 1.53.52V2.18C14 1 10.87 0 7 0S0 1 0 2.18V13c0 1.21 3.13 2.18 7 2.18h.55a5.41 5.41 0 0 1-.73-1c-3.53-.01-5.51-.85-5.82-1.24zM1 2.36v-.1C1.31 1.86 3.35 1 7 1s5.69.86 6 1.26v.15c-.31.4-2.35 1.26-6 1.26s-5.69-.86-6-1.26z"/><path class="czced7672c-4971-4510-bb5b-acc2aa12e336" d="M15.56 6.58L14.19 8a4.48 4.48 0 1 0 .62 6.69.8.8 0 0 0-1.16-1.1A2.9 2.9 0 1 1 13 9.1l-1.65 1.65a.23.23 0 0 0 .16.4h4.17a.23.23 0 0 0 .23-.23V6.75a.23.23 0 0 0-.35-.17z"/></g></svg><svg id="task-console" data-name="Layer 1" viewBox="-1 -1 18 18" width="18" height="18" x="214.89" y="180"><defs><style>.dacls-1{fill:#37708d}.dacls-2{fill:#fff}.dacls-3{fill:none;stroke:#799baf;stroke-miterlimit:10}.dacls-4{fill:#cbdae0}</style></defs><title>Task Console</title><rect class="dacls-1" x="1" y="2" width="12" height="14" rx="1.35" ry="1.35"/><path class="dacls-2" d="M2 3h10v12H2z"/><path class="dacls-3" d="M8 6L5 9 4 7M8 10l-3 3-1-2"/><path class="dacls-1" d="M3 2h8v3H3z"/><circle class="dacls-1" cx="7" cy="2" r="2"/><circle class="dacls-4" cx="7" cy="2" r="1"/><path class="dacls-4" d="M4 3h6v1H4z"/></svg><svg id="toolbar-add" viewBox="-1 -1 18 18" width="18" height="18" y="204"><style>.dbst0{fill:none;stroke:#747474;stroke-width:2;stroke-linecap:round;stroke-miterlimit:10}</style><g id="dbLayer_1_1_"><path class="dbst0" d="M8 1v14M1 8h14"/></g></svg><svg id="toolbar-add-folder" viewBox="-1 -1 18 18" width="18" height="18" x="18" y="204"><style>.dcst0{fill:none;stroke:#747474;stroke-miterlimit:10}.dcst1{fill:#747474}.dcst2{fill:none;stroke:#747474;stroke-width:2;stroke-miterlimit:10}</style><g id="dcLayer_1_1_"><path class="dcst0" d="M2.5 8v7.5h13V7.3c0-.5-.4-.9-.9-.9H9.1l-1-.9H5"/><path class="dcst1" d="M8 7H2v1h6l1-1V6z"/><path class="dcst2" d="M3 0v6M0 3h6"/></g></svg><svg id="toolbar-add-vm" viewBox="-1 -1 18 18" width="18" height="18" x="36" y="204"><style>.ddst0,.ddst1{fill:none;stroke:#747474;stroke-miterlimit:10}.ddst1{stroke-width:2}</style><g id="ddLayer_1_1_"><path class="ddst0" d="M2.5 7.5h8v8h-8zM12.5 4v5M7 2.5h5.5V4"/><path class="ddst1" d="M3 0v6M0 3h6"/><path class="ddst0" d="M10.5 13.5h-3V7.7M7 5.5h8.5v8H12"/></g></svg><svg id="toolbar-add~hover" viewBox="-1 -1 18 18" width="18" height="18" x="54" y="204"><style>.dest0{fill:none;stroke:#007cbb;stroke-width:2;stroke-linecap:round;stroke-miterlimit:10}</style><g id="deLayer_1_1_"><path class="dest0" d="M8 1v14M1 8h14"/></g></svg><svg id="toolbar-edit" viewBox="-1 -1 18 18" width="18" height="18" x="72" y="204"><style>.dfst0{fill:#747474}.dfst1{fill:none;stroke:#747474;stroke-miterlimit:10}</style><g id="dfLayer_1_1_"><path class="dfst0" d="M5.3 13.4l-1.4-1.5 9.7-9.6L15 3.7z"/><path class="dfst1" d="M12.2 1L1.7 11.5.5 15l.5.5 3.4-1.3L14.9 3.7z"/><path class="dfst0" d="M1.3 12.8L.5 15l.5.5 2.1-.9z"/></g></svg><svg viewBox="-1 -1 18 18" width="18" height="18" id="toolbar-host-question" x="90" y="204"><title>new hostq</title><g data-name="Layer 1"><path d="M0 1v15h10V1zm9 14H1V2h8z" fill="#747474"/><path fill="#747475" d="M8 7H2v8h1V8h4v7h1V7z"/><path fill="#747474" d="M2 3h6v1H2zM12 6.87a15.86 15.86 0 0 1 .07-1.65A1.83 1.83 0 0 1 12.8 4c.19-.16.41-.31.63-.47.66-.46 1.09-.8 1.11-1.22a.9.9 0 0 0-.35-.61 1.72 1.72 0 0 0-1.12-.32 3.07 3.07 0 0 0-1.66.52L10.6.79A5.17 5.17 0 0 1 13.11 0a3.09 3.09 0 0 1 2 .65 2.16 2.16 0 0 1 .82 1.73 3.13 3.13 0 0 1-1.69 2.27c-.19.13-.38.26-.55.4-.34.28-.28 1.41-.28 1.82zM12.03 8h1.43v1.43h-1.43z"/></g></svg><svg id="toolbar-more" viewBox="-1 -1 18 18" width="18" height="18" x="108" y="204"><style>.dhst0{fill:#747474}</style><g id="dhLayer_1_1_"><circle class="dhst0" cx="2.1" cy="8.2" r="1.8"/><circle class="dhst0" cx="8.1" cy="8.2" r="1.8"/><circle class="dhst0" cx="14.1" cy="8.2" r="1.8"/></g></svg><svg id="toolbar-network-add" viewBox="-1 -1 18 18" width="18" height="18" x="126" y="204"><style>.dist0{stroke-linecap:round}.dist0,.dist1,.dist2{fill:none;stroke:#747474;stroke-width:2;stroke-miterlimit:10}.dist2{stroke-width:1.2}</style><g id="diLayer_1_1_"><path class="dist0" d="M4 15h11"/><path class="dist1" d="M10 12.9v1.5"/><path class="dist2" d="M7.1 2.2c.8-.5 1.8-.7 2.8-.7 3 0 5.5 2.4 5.5 5.5s-2.4 5.5-5.5 5.5S4.4 10 4.4 6.9"/><path class="dist1" d="M3 0v6M0 3h6"/></g></svg><svg id="toolbar-remove" viewBox="-1 -1 18 18" width="18" height="18" x="144" y="204"><style>.djst0{fill:none;stroke:#747474;stroke-width:2;stroke-linecap:round;stroke-miterlimit:10}</style><g id="djLayer_1_1_"><path class="djst0" d="M2.6 2.4l11.1 11.2M2.6 13.6L13.7 2.4"/></g></svg><svg id="toolbar-roles" viewBox="-1 -1 18 18" width="18" height="18" x="162" y="204"><style>.dkst0,.dkst1{fill:none;stroke:#747474;stroke-miterlimit:10}.dkst1{stroke-linejoin:round}.dkst2{fill:#747474}</style><g id="dkLayer_1_1_"><path class="dkst0" d="M6.5.5h3v4h-3z"/><path class="dkst1" d="M9 2.5h3.5c.6 0 1 .4 1 1v11c0 .6-.4 1-1 1h-9c-.6 0-1-.4-1-1v-11c0-.6.4-1 1-1H6"/><circle class="dkst2" cx="8.1" cy="8" r="2"/><path class="dkst2" d="M8.7 11H7.5c-1.9 0-3.4 1.3-3.4 3h8c0-1.7-1.5-3-3.4-3z"/></g></svg><svg id="uplink-port-group" data-name="Layer 1" viewBox="-1 -1 18 18" width="18" height="18" x="180" y="204"><defs><style>.dlcls-1{fill:#ebf1f2}.dlcls-2{fill:#ccdbe1}.dlcls-3,.dlcls-5{fill:none}.dlcls-3{stroke:#fff}.dlcls-3,.dlcls-5,.dlcls-7{stroke-miterlimit:10}.dlcls-4{fill:#799bb0}.dlcls-5{stroke:#245d80}.dlcls-6{fill:#fff}.dlcls-7{fill:#cbdae0;stroke:#37708d}.dlcls-8{fill:#37708d}</style></defs><title>Uplink Port Group</title><path class="dlcls-1" d="M14.46 11.79L12.64 7a.69.69 0 0 0-.76-.5H3.13c-.54 0-.61.23-.76.51L.54 11.8z"/><rect class="dlcls-2" x=".5" y="11.49" width="14" height="4.04" rx=".5" ry=".5"/><path class="dlcls-3" d="M14.5 12a.5.5 0 0 0-.5-.5H1a.5.5 0 0 0-.5.5"/><path class="dlcls-4" d="M2 12h1v2H2zM4 12h1v2H4zM6 12h1v2H6zM8 12h1v2H8zM10 12h1v2h-1zM12 12h1v2h-1z"/><path class="dlcls-5" d="M14.45 11.79L12.64 7c-.15-.28-.22-.5-.76-.5H3.13c-.54 0-.61.23-.76.51L.54 11.8a.5.5 0 0 0 0 .2v3a.5.5 0 0 0 .5.5H14a.5.5 0 0 0 .5-.5v-3a.49.49 0 0 0-.05-.21z"/><path class="dlcls-6" d="M9 8V6H3v3h5v1h6.28l-.65-2H9z"/><path class="dlcls-7" d="M4.5 1.5v6h5v1.04h6V1.5h-11z"/><path class="dlcls-8" d="M11 3h3v3h-3zM6 3h2v2H6zM9 4h1v1H9zM6 6h1v1H6zM8 6h1v1H8z"/><path class="dlcls-1" d="M10 7h5v1h-5z"/></svg><svg id="uplink-port-group-alert" data-name="Layer 1" viewBox="-1 -1 18 18" width="18" height="18" x="198" y="204"><defs><style>.dmcls-1{fill:#ebf1f2}.dmcls-2{fill:#ccdbe1}.dmcls-3,.dmcls-5{fill:none}.dmcls-3{stroke:#fff}.dmcls-3,.dmcls-5,.dmcls-6{stroke-miterlimit:10}.dmcls-4{fill:#799bb0}.dmcls-5{stroke:#245d80}.dmcls-6{fill:#cbdae0;stroke:#37708d}.dmcls-7{fill:#37708d}.dmcls-8{fill:#fff}.dmcls-9{fill:#e52528}</style></defs><title>Uplink Port Group Alert</title><path class="dmcls-1" d="M14.46 11.79L12.64 7a.69.69 0 0 0-.76-.5H3.13c-.54 0-.61.23-.76.51L.54 11.8z"/><rect class="dmcls-2" x=".5" y="11.49" width="14" height="4.04" rx=".5" ry=".5"/><path class="dmcls-3" d="M14.5 12a.5.5 0 0 0-.5-.5H1a.5.5 0 0 0-.5.5"/><path class="dmcls-4" d="M2 12h1v2H2zM4 12h1v2H4zM6 12h1v2H6zM8 12h1v2H8zM10 12h1v2h-1zM12 12h1v2h-1z"/><path class="dmcls-5" d="M14.45 11.79L12.64 7c-.15-.28-.22-.5-.76-.5H3.13c-.54 0-.61.23-.76.51L.54 11.8a.5.5 0 0 0 0 .2v3a.5.5 0 0 0 .5.5H14a.5.5 0 0 0 .5-.5v-3a.49.49 0 0 0-.05-.21z"/><path class="dmcls-3" d="M14.12 10.92L12.64 7c-.15-.28-.22-.5-.76-.5H3.13"/><path class="dmcls-6" d="M4.5 1.5v6h5v1.04h6V1.5h-11z"/><path class="dmcls-7" d="M11 3h3v3h-3zM6 3h2v2H6zM9 4h1v1H9zM6 6h1v1H6zM8 6h1v1H8z"/><path class="dmcls-1" d="M10 7h5v1h-5z"/><path class="dmcls-8" d="M8.34 16h6.31A5.55 5.55 0 0 0 16 14.66V8.34A5.5 5.5 0 1 0 8.34 16z"/><path class="dmcls-9" d="M11.5 7A4.5 4.5 0 1 1 7 11.5 4.51 4.51 0 0 1 11.5 7"/><path class="dmcls-8" d="M11 9h1v3h-1zM11 13h1v1h-1z"/></svg><svg id="uplink-port-group-warning" data-name="Layer 1" viewBox="-1 -1 18 18" width="18" height="18" x="232.89"><defs><style>.dncls-1{fill:#ebf1f2}.dncls-2{fill:#ccdbe1}.dncls-3,.dncls-5{fill:none}.dncls-3{stroke:#fff}.dncls-3,.dncls-5,.dncls-6{stroke-miterlimit:10}.dncls-4{fill:#799bb0}.dncls-5{stroke:#245d80}.dncls-6{fill:#cbdae0;stroke:#37728e}.dncls-7{fill:#50809b}.dncls-8{fill:#fff}.dncls-9{fill:#987e2e}.dncls-10{fill:#ffd111}.dncls-11{fill:#221f1f}</style></defs><title>Uplink Port Group Warning</title><path class="dncls-1" d="M14.46 11.79L12.64 7a.69.69 0 0 0-.76-.5H3.13c-.54 0-.61.23-.76.51L.54 11.8z"/><rect class="dncls-2" x=".5" y="11.49" width="14" height="4.04" rx=".5" ry=".5"/><path class="dncls-3" d="M14.5 12a.5.5 0 0 0-.5-.5H1a.5.5 0 0 0-.5.5"/><path class="dncls-4" d="M2 12h1v2H2zM4 12h1v2H4zM6 12h1v2H6zM8 12h1v2H8zM10 12h1v2h-1zM12 12h1v2h-1z"/><path class="dncls-5" d="M14.45 11.79L12.64 7c-.15-.28-.22-.5-.76-.5H3.13c-.54 0-.61.23-.76.51L.54 11.8a.5.5 0 0 0 0 .2v3a.5.5 0 0 0 .5.5H14a.5.5 0 0 0 .5-.5v-3a.49.49 0 0 0-.05-.21z"/><path class="dncls-3" d="M14.12 10.92L12.64 7c-.15-.28-.22-.5-.76-.5H3.13"/><path class="dncls-6" d="M4.5 1.5v6h5v1.04h6V1.5h-11z"/><path class="dncls-7" d="M11 3h3v3h-3zM6 3h2v2H6zM9 4h1v1H9zM6 6h1v1H6zM8 6h1v1H8z"/><path class="dncls-1" d="M10 7h5v1h-5z"/><g id="dnBEST"><path class="dncls-8" d="M15.88 11.2l-2.8-4.9a2.85 2.85 0 0 0-2.5-1.4 2.85 2.85 0 0 0-2.5 1.4l-3.7 6.3a3 3 0 0 0 0 2.9 1.76 1.76 0 0 0 .4.5h11.1z"/><path class="dncls-9" d="M15.88 13.2l-3.7-6.4a1.62 1.62 0 0 0-1.6-.9 1.85 1.85 0 0 0-1.7.9l-3.7 6.3a1.93 1.93 0 0 0 .7 2.6 1.69 1.69 0 0 0 1 .3h7.3a2.06 2.06 0 0 0 1.7-1v-1.8z"/><path class="dncls-10" d="M11.27 7.3L15 13.6a1 1 0 0 1-.3 1.3.75.75 0 0 1-.5.1H6.88a1 1 0 0 1-.8-1.4l3.6-6.3a.84.84 0 0 1 1.2-.3 1.38 1.38 0 0 1 .39.3z"/><path class="dncls-11" d="M9.88 13h1v1h-1zM9.88 9h1v3h-1z"/></g></svg><svg id="vapp" data-name="Layer 1" viewBox="-1 -1 18 18" width="18" height="18" x="232.89" y="18"><defs><style>.docls-1{fill:#fff}.docls-2{fill:#9ab6c5}.docls-3{fill:none;stroke:#36708c;stroke-miterlimit:10}.docls-4{fill:#b1c8d4}</style></defs><title>icon artboards patch 2 strokecenter</title><path class="docls-1" d="M8 8h6v6H8zM0 8h6v6H0zM0 0h6v6H0zM8 0h6v6H8z"/><path class="docls-2" d="M3 3h8v8H3z"/><path class="docls-3" d="M.5.5h5v5h-5zM8.5.5h5v5h-5z"/><path class="docls-4" d="M9 3h2v2H9zM9 9h2v2H9zM3 9h2v2H3zM3 3h2v2H3z"/><path class="docls-3" d="M8.5 8.5h5v5h-5zM.5 8.5h5v5h-5z"/></svg><svg id="vcenter" data-name="Layer 1" viewBox="-1 -1 18 18" width="18" height="18" x="232.89" y="36"><defs><style>.dpcls-1{fill:#60b515}.dpcls-2{fill:#ffbb24}</style></defs><title>icon artboards patch 2 strokecenter</title><path class="dpcls-1" d="M13 3v7H9v4H2V7h4V3h7m1-2H5a1 1 0 0 0-1 1v3H1a1 1 0 0 0-1 1v9a1 1 0 0 0 1 1h9a1 1 0 0 0 1-1v-3h3a1 1 0 0 0 1-1V2a1 1 0 0 0-1-1z"/><path class="dpcls-2" d="M8 5h3v3H8zM4 9h3v3H4z"/></svg><svg id="virtual-port-group" data-name="Layer 1" viewBox="-1 -1 18 18" width="18" height="18" x="232.89" y="54"><defs><style>.dqcls-1{fill:#fff}.dqcls-2{fill:#ebf1f2}.dqcls-3{fill:#ccdbe1}.dqcls-4,.dqcls-6,.dqcls-7,.dqcls-9{fill:none;stroke-miterlimit:10}.dqcls-4{stroke:#fff}.dqcls-5{fill:#799bb0}.dqcls-6,.dqcls-7{stroke:#245d80}.dqcls-7{stroke-linecap:round}.dqcls-8{fill:#b1c8d4}.dqcls-9{stroke:#50809b}</style></defs><title>Virtual Port Group</title><circle class="dqcls-1" cx="7.45" cy="4.14" r="3.42"/><path class="dqcls-2" d="M14.46 11.79L12.64 7a.69.69 0 0 0-.76-.5H3.13c-.54 0-.61.23-.76.51L.54 11.8z"/><rect class="dqcls-3" x=".5" y="11.49" width="14" height="4.04" rx=".5" ry=".5"/><path class="dqcls-4" d="M14.5 12a.5.5 0 0 0-.5-.5H1a.5.5 0 0 0-.5.5"/><path class="dqcls-5" d="M2 12h1v2H2zM4 12h1v2H4zM6 12h1v2H6zM8 12h1v2H8zM10 12h1v2h-1zM12 12h1v2h-1z"/><path class="dqcls-6" d="M14.45 11.79L12.64 7c-.15-.28-.22-.5-.76-.5H3.13c-.54 0-.61.23-.76.51L.54 11.8a.5.5 0 0 0 0 .2v3a.5.5 0 0 0 .5.5H14a.5.5 0 0 0 .5-.5v-3a.49.49 0 0 0-.05-.21z"/><path class="dqcls-1" d="M3.27 5.92a4.55 4.55 0 0 0 8.37 0z"/><path class="dqcls-6" d="M7.46 7.06v2.5"/><path class="dqcls-7" d="M3.92 9.44h7.41"/><path class="dqcls-8" d="M9.32 1.28a5.08 5.08 0 0 1 .05.53 5.18 5.18 0 0 1-4 5 3.41 3.41 0 1 0 3.95-5.53z"/><circle class="dqcls-9" cx="7.45" cy="4.14" r="3.42"/></svg><svg id="virtual-port-group-alert" viewBox="-1 -1 18 18" width="18" height="18" x="232.89" y="72"><style>.drst0{fill:#ebf1f2}.drst1{fill:#ccdbe1}.drst2{fill:none;stroke:#fff;stroke-miterlimit:10}.drst3{fill:#799bb0}.drst4{fill:none;stroke:#245d80;stroke-miterlimit:10}.drst5{fill:#fff}.drst6{fill:none;stroke:#245d80;stroke-linecap:round;stroke-miterlimit:10}.drst7{fill:#b1c8d4}.drst8{fill:none;stroke:#50809b;stroke-miterlimit:10}.drst9{fill:#e52528}</style><title>Virtual Port Group Alert</title><path class="drst0" d="M14.5 11.8L12.6 7c-.1-.3-.4-.5-.8-.5H3.1c-.5 0-.6.2-.7.5L.6 11.8h13.9z"/><path class="drst1" d="M1 11.5h13c.3 0 .5.2.5.5v3c0 .3-.2.5-.5.5H1c-.3 0-.5-.2-.5-.5v-3c0-.3.2-.5.5-.5z"/><path class="drst2" d="M14.5 12c0-.3-.2-.5-.5-.5H1c-.3 0-.5.2-.5.5"/><path class="drst3" d="M2 12h1v2H2zM4 12h1v2H4zM6 12h1v2H6zM8 12h1v2H8zM10 12h1v2h-1zM12 12h1v2h-1z"/><path class="drst4" d="M14.4 11.8L12.6 7c-.1-.3-.2-.5-.8-.5H3.1c-.5 0-.6.2-.7.5L.6 11.8V15c0 .3.2.5.5.5h13c.3 0 .5-.2.5-.5v-3l-.2-.2z"/><path class="drst5" d="M3.3 5.9c1 2.3 3.7 3.4 6 2.4 1.1-.5 1.9-1.3 2.4-2.4H3.3z"/><circle class="drst5" cx="7.4" cy="4.1" r="3.4"/><path class="drst4" d="M7.5 7.1v2.5"/><path class="drst6" d="M3.9 9.4h7.4"/><path class="drst7" d="M9.3 1.3c0 .2 0 .4.1.5 0 2.4-1.7 4.5-4 5C6.8 8 9 7.9 10.2 6.4s1-3.6-.4-4.8c-.2-.1-.3-.2-.5-.3z"/><circle class="drst8" cx="7.4" cy="4.1" r="3.4"/><path class="drst5" d="M6 11.5c0 1.9.9 3.5 2.3 4.5H14c.6 0 1-.4 1-1v-3c0-.1 0-.3-.1-.4l-1.8-4.8-.1-.1c-.1-.3-.3-.5-.7-.6-.2-.1-.5-.1-.8-.1C8.5 6 6 8.5 6 11.5z"/><path class="drst9" d="M11.5 7C14 7 16 9 16 11.5S14 16 11.5 16 7 14 7 11.5 9 7 11.5 7"/><path class="drst5" d="M11 9h1v3h-1zM11 13h1v1h-1z"/></svg><svg id="virtual-port-group-warning" data-name="Layer 1" viewBox="-1 -1 18 18" width="18" height="18" x="232.89" y="90"><defs><style>.dscls-1{fill:#ebf1f2}.dscls-2{fill:#ccdbe1}.dscls-3,.dscls-5,.dscls-7,.dscls-9{fill:none;stroke-miterlimit:10}.dscls-3{stroke:#fff}.dscls-4{fill:#799bb0}.dscls-5,.dscls-7{stroke:#245d80}.dscls-6{fill:#fff}.dscls-7{stroke-linecap:round}.dscls-8{fill:#b1c8d4}.dscls-9{stroke:#50809b}.dscls-10{fill:#987e2e}.dscls-11{fill:#ffd111}.dscls-12{fill:#221f1f}</style></defs><title>Virtual Port Group Warning</title><path class="dscls-1" d="M14.46 11.79L12.64 7a.69.69 0 0 0-.76-.5H3.13c-.54 0-.61.23-.76.51L.54 11.8z"/><rect class="dscls-2" x=".5" y="11.49" width="14" height="4.04" rx=".5" ry=".5"/><path class="dscls-3" d="M14.5 12a.5.5 0 0 0-.5-.5H1a.5.5 0 0 0-.5.5"/><path class="dscls-4" d="M2 12h1v2H2zM4 12h1v2H4zM6 12h1v2H6zM8 12h1v2H8zM10 12h1v2h-1zM12 12h1v2h-1z"/><path class="dscls-5" d="M14.45 11.79L12.64 7c-.15-.28-.22-.5-.76-.5H3.13c-.54 0-.61.23-.76.51L.54 11.8a.5.5 0 0 0 0 .2v3a.5.5 0 0 0 .5.5H14a.5.5 0 0 0 .5-.5v-3a.49.49 0 0 0-.05-.21z"/><path class="dscls-6" d="M3.27 5.92a4.55 4.55 0 0 0 8.37 0z"/><circle class="dscls-6" cx="7.45" cy="4.14" r="3.42"/><path class="dscls-5" d="M7.46 7.06v2.5"/><path class="dscls-7" d="M3.92 9.44h7.41"/><path class="dscls-8" d="M9.32 1.28a5.08 5.08 0 0 1 .05.53 5.18 5.18 0 0 1-4 5 3.41 3.41 0 1 0 3.95-5.53z"/><circle class="dscls-9" cx="7.45" cy="4.14" r="3.42"/><g id="dsBEST"><path class="dscls-6" d="M15.88 11.2l-2.8-4.9a2.85 2.85 0 0 0-2.5-1.4 2.85 2.85 0 0 0-2.5 1.4l-3.7 6.3a3 3 0 0 0 0 2.9 1.76 1.76 0 0 0 .4.5h11.1z"/><path class="dscls-10" d="M15.88 13.2l-3.7-6.4a1.62 1.62 0 0 0-1.6-.9 1.85 1.85 0 0 0-1.7.9l-3.7 6.3a1.93 1.93 0 0 0 .7 2.6 1.69 1.69 0 0 0 1 .3h7.3a2.06 2.06 0 0 0 1.7-1v-1.8z"/><path class="dscls-11" d="M11.27 7.3L15 13.6a1 1 0 0 1-.3 1.3.75.75 0 0 1-.5.1H6.88a1 1 0 0 1-.8-1.4l3.6-6.3a.84.84 0 0 1 1.2-.3 1.38 1.38 0 0 1 .39.3z"/><path class="dscls-12" d="M9.88 13h1v1h-1zM9.88 9h1v3h-1z"/></g></svg><svg id="vm" data-name="Layer 1" viewBox="-1 -1 18 18" width="18" height="18" x="232.89" y="108"><defs><style>.dtcls-1{fill:#356f8c}.dtcls-2{fill:#fff}.dtcls-3{fill:#1b5c7e}.dtcls-4{fill:#cbd9e0}</style></defs><title>vsphere 16x text-SVG-temp</title><path class="dtcls-1" d="M11 0H2v9h9V0z"/><path class="dtcls-2" d="M10 1v7H3V1h7"/><path class="dtcls-3" d="M14 4H5v9h9V4z"/><path class="dtcls-1" d="M14 4H5v9h9V4z"/><path class="dtcls-2" d="M13 5v7H6V5h7"/><path class="dtcls-3" d="M9 6H0v9h9V6z"/><path class="dtcls-1" d="M9 6H0v9h9V6z"/><path class="dtcls-2" d="M8 7v7H1V7h7"/><path class="dtcls-4" d="M10 5h1v3h-1zM6 12V7H5v6h2v-1H6z"/></svg><svg id="vm-add" data-name="Layer 1" viewBox="-1 -1 18 18" width="18" height="18" x="232.89" y="126"><defs><style>.ducls-1{fill:#356f8c}.ducls-2,.ducls-5{fill:#fff}.ducls-3{fill:#1b5c7e}.ducls-4{fill:#cbd9e0}.ducls-5{opacity:.6}.ducls-6{fill:none;stroke:#004a70;stroke-miterlimit:10;stroke-width:2px}</style></defs><title>*icon artboards final</title><path class="ducls-1" d="M13 1H4v9h9V1z"/><path class="ducls-2" d="M12 2v7H5V2h7"/><path class="ducls-3" d="M16 5H7v9h9V5z"/><path class="ducls-1" d="M16 5H7v9h9V5z"/><path class="ducls-2" d="M15 6v7H8V6h7"/><path class="ducls-3" d="M11 7H2v9h9V7z"/><path class="ducls-1" d="M11 7H2v9h9V7z"/><path class="ducls-2" d="M10 8v7H3V8h7"/><path class="ducls-4" d="M12 6h1v3h-1zM8 13V8H7v6h2v-1H8z"/><path class="ducls-5" d="M7 1H4v6h1V5h2V1z"/><path class="ducls-6" d="M3 0v6M0 3h6"/></svg><svg id="vm-add-from-template" data-name="Layer 1" viewBox="-1 -1 18 18" width="18" height="18" x="232.89" y="144"><defs><style>.dvcls-1{fill:#356f8c}.dvcls-2{fill:#d9e3e9}.dvcls-3{fill:#9ab6c5}.dvcls-4,.dvcls-5{fill:#fff}.dvcls-5{fill-opacity:.7}.dvcls-6{fill:#004a70;fill-rule:evenodd}</style></defs><title>vm_from_template_add</title><path class="dvcls-1" d="M4 1h12v15H4z"/><path class="dvcls-2" d="M5 2h10v13H5z"/><path class="dvcls-3" d="M7 4h6v1H7zM7 6h6v1H7zM7 8h6v1H7zM7 10h6v1H7z"/><path class="dvcls-1" d="M2 6h6v6H2z"/><path class="dvcls-4" d="M3 7h4v4H3z"/><path class="dvcls-1" d="M5 8h6v6H5z"/><path class="dvcls-4" d="M6 9h4v4H6z"/><path class="dvcls-1" d="M1 10h6v6H1z"/><path class="dvcls-4" d="M2 11h4v4H2z"/><path class="dvcls-5" d="M4 1h2v3H4z"/><path class="dvcls-6" d="M0 2v1h2v2h1V3h2V2H3V0H2v2H0z"/></svg><svg id="vm-error" data-name="Layer 1" viewBox="-1 -1 18 18" width="18" height="18" x="232.89" y="162"><defs><style>.dwcls-1{fill:#356f8c}.dwcls-2{fill:#fff}.dwcls-3{fill:#1b5c7e}.dwcls-4{fill:#cbd9e0}.dwcls-5{fill:#e81e25}</style></defs><title>vsphere 16x text-SVG-temp</title><path class="dwcls-1" d="M11 0H2v9h9V0z"/><path class="dwcls-2" d="M10 1v7H3V1h7"/><path class="dwcls-3" d="M14 4H5v9h9V4z"/><path class="dwcls-1" d="M14 4H5v9h9V4z"/><path class="dwcls-2" d="M13 5v7H6V5h7"/><path class="dwcls-3" d="M9 6H0v9h9V6z"/><path class="dwcls-1" d="M9 6H0v9h9V6z"/><path class="dwcls-2" d="M8 7v7H1V7h7"/><path class="dwcls-4" d="M10 5h1v3h-1zM6 12V7H5v6h2v-1H6z"/><path class="dwcls-2" d="M14 6.61A5.5 5.5 0 0 0 7.26 15H9v-2h5V6.61z"/><path class="dwcls-5" d="M11.5 7A4.5 4.5 0 1 1 7 11.5 4.51 4.51 0 0 1 11.5 7"/><path class="dwcls-2" d="M11 9h1v3h-1zM11 13h1v1h-1z"/></svg><svg id="vm-information" data-name="Layer 1" viewBox="-1 -1 18 18" width="18" height="18" x="232.89" y="180"><defs><style>.dxcls-1,.dxcls-2{fill:none}.dxcls-1{clip-rule:evenodd}.dxcls-3{fill:#fff}.dxcls-4{fill:#38718e}.dxcls-5{fill:#cbdae0}.cls-6{clip-path:url(#dxclip-path)}.cls-7{clip-path:url(#dxclip-path-2)}.cls-8{clip-path:url(#dxclip-path-3)}.dxcls-9{fill:#f89421;stroke:#e8782d;stroke-miterlimit:10}</style><clipPath id="dxclip-path"><path class="dxcls-1" d="M-62.19-160.22a5.49 5.49 0 0 0 2.34 4.5h6.33a5.52 5.52 0 0 0 1.34-1.34v-6.33a5.49 5.49 0 0 0-4.5-2.34 5.5 5.5 0 0 0-5.51 5.51z"/></clipPath><clipPath id="dxclip-path-2"><path class="dxcls-2" d="M23 48.89h2v2h-2z"/></clipPath><clipPath id="dxclip-path-3"><path class="dxcls-2" d="M29 48.89h2v2h-2z"/></clipPath></defs><title>VM Information</title><path class="dxcls-3" d="M2 0h9v9H2z"/><path class="dxcls-3" d="M0 5h9v9H0z"/><path class="dxcls-3" d="M5 3h9v9H5z"/><path class="dxcls-4" d="M9 14H0V5h9zm-8-1h7V6H1zM6 5V4h4V3H5v2h1z"/><path class="dxcls-4" d="M10 4h1V0H2v5.5h1V1h7v3z"/><path class="dxcls-5" d="M10 4v4H9v1h2V4h-1zM6 6H5v2H3V6H2v3h3v3h2.8v-1H6V9h2V8H6V6z"/><path class="dxcls-4" d="M11 3v1h2.2v7H9v1h5V3h-3z"/><path class="dxcls-3" d="M7.7 14H14V5.21H9.37a4.11 4.11 0 0 0-4.3 3.87v.82c0 1.85.67 3.74 2.63 4.1z"/><path class="dxcls-3" d="M9.56 10.53h1.36v2.87H9.56zM9.47 8.1h1.56v1.22H9.47z"/><path class="dxcls-9" d="M12.16 6.42H9.88a3.42 3.42 0 0 0-3.4 3.4v.44a3.42 3.42 0 0 0 3.41 3.41h.39l3 1.58v-1.78a3.41 3.41 0 0 0 2.29-3.2v-.45a3.42 3.42 0 0 0-3.41-3.4z"/><path class="dxcls-3" d="M10.13 10.03h1.36v2.87h-1.36zM10.03 7.6h1.56v1.22h-1.56z"/></svg><svg id="vm-on" data-name="Layer 1" viewBox="-1 -1 18 18" width="18" height="18" x="232.89" y="198"><defs><style>.dycls-1{fill:#356f8c}.dycls-2{fill:#fff}.dycls-3{fill:#1b5c7e}.dycls-4{fill:#cbd9e0}.dycls-5{fill:#62a420}</style></defs><title>vsphere 16x text-SVG-temp</title><path class="dycls-1" d="M11 0H2v9h9V0z"/><path class="dycls-2" d="M10 1v7H3V1h7"/><path class="dycls-3" d="M14 4H5v9h9V4z"/><path class="dycls-1" d="M14 4H5v9h9V4z"/><path class="dycls-2" d="M13 5v7H6V5h7"/><path class="dycls-3" d="M9 6H0v9h9V6z"/><path class="dycls-1" d="M9 6H0v9h9V6z"/><path class="dycls-2" d="M8 7v7H1V7h7"/><path class="dycls-4" d="M10 5h1v3h-1zM6 12V7H5v6h2v-1H6z"/><path class="dycls-2" d="M14 8.61L9.83 6.52A4.14 4.14 0 0 0 8.11 6c-.77 0-1.36.49-1.31 2v7H9v-2h5V8.61z"/><path class="dycls-5" d="M16 11.07a.91.91 0 0 0-.22-.17L9.44 7.41A2.6 2.6 0 0 0 8.28 7a.24.24 0 0 0-.14 0A1.58 1.58 0 0 0 8 8v7a1.47 1.47 0 0 0 .14.93.34.34 0 0 0 .22.06 2.5 2.5 0 0 0 1.08-.36l6.34-3.49A.91.91 0 0 0 16 12v-.93z"/></svg><svg id="vm-suspended" data-name="Layer 1" viewBox="-1 -1 18 18" width="18" height="18" y="222"><defs><style>.dzcls-1{fill:#356f8c}.dzcls-2{fill:#fff}.dzcls-3{fill:#1b5c7e}.dzcls-4{fill:#cbd9e0}.dzcls-5{fill:#9e810a}.dzcls-6{fill:#ffed0b}</style></defs><title>vsphere 16x text-SVG-temp</title><path class="dzcls-1" d="M11 0H2v9h9V0z"/><path class="dzcls-2" d="M10 1v7H3V1h7"/><path class="dzcls-3" d="M14 4H5v9h9V4z"/><path class="dzcls-1" d="M14 4H5v9h9V4z"/><path class="dzcls-2" d="M13 5v7H6V5h7"/><path class="dzcls-3" d="M9 6H0v9h9V6z"/><path class="dzcls-1" d="M9 6H0v9h9V6z"/><path class="dzcls-2" d="M8 7v7H1V7h7"/><path class="dzcls-4" d="M10 5h1v3h-1zM6 12V7H5v6h2v-1H6z"/><path class="dzcls-2" d="M9 13h5V8H8v7h1v-2z"/><path class="dzcls-5" d="M16 9H9v7h7V9z"/><path class="dzcls-6" d="M15 10v5h-2v-5h2M12 10v5h-2v-5h2"/></svg><svg id="vm-template" viewBox="-1 -1 18 18" width="18" height="18" x="18" y="222"><style>.east0{fill:#eaf0f2;stroke:#356f8c;stroke-miterlimit:10}.east1{fill:#fff}.east2{fill:#789bb0}.east3,.east4{fill:none;stroke:#789bb0;stroke-miterlimit:10}.east4{stroke:#356f8c}</style><g id="eaLayer_2"><path class="east0" d="M4.5 4.5h10v10h-10z"/><path class="east1" d="M8.9 12H3.5c-.3 0-.5-.2-.5-.5v-9c0-.3.2-.5.5-.5h9c.3 0 .5.2.5.5v5.4L8.9 12z"/><path class="east2" d="M7 12V7h5.4v1.3L8.8 12z"/><path class="east3" d="M12.5 4.8v3.5l-4.1 4.1H5"/><path class="east4" d="M5 12.4H2.5v-10h10V5"/></g></svg><svg id="vm-templates-24x" data-name="Layer 1" viewBox="-1 -1 26 26" width="26" height="26" x="120.89" y="50.02"><defs><style>.ebcls-1,.ebcls-3{fill:#c8d6dd}.ebcls-1,.ebcls-2,.ebcls-4{stroke:#518097;stroke-miterlimit:10}.ebcls-2,.ebcls-4{fill:#fff;stroke:#004a70}.ebcls-4{fill:none}</style></defs><title>icon artboards patch 2 strokecenter</title><path class="ebcls-1" d="M6.5 6.5h14v14h-14z"/><path class="ebcls-2" d="M18.47 12.84l.03.01V4.5h-14v14h8.31l5.66-5.66z"/><path class="ebcls-3" d="M12.88 18.58v-5.71h5.71l-5.71 5.71z"/><path class="ebcls-4" d="M12.9 18.58v-5.71h5.53"/><path class="ebcls-4" d="M18.47 12.84l.03.01V4.5h-14v14h8.31l5.66-5.66z"/></svg><svg id="vm-warning" data-name="Layer 1" viewBox="-1 -1 18 18" width="18" height="18" x="54" y="222"><defs><style>.eccls-1{fill:#356f8c}.eccls-2{fill:#fff}.eccls-3{fill:#1b5c7e}.eccls-4{fill:#cbd9e0}.eccls-5{fill:#ffd110}.eccls-6{fill:#997c00}.eccls-7{fill:#231f20}</style></defs><title>vsphere 16x text-SVG-temp</title><path class="eccls-1" d="M11 0H2v9h9V0z"/><path class="eccls-2" d="M10 1v7H3V1h7"/><path class="eccls-3" d="M14 4H5v9h9V4z"/><path class="eccls-1" d="M14 4H5v9h9V4z"/><path class="eccls-2" d="M13 5v7H6V5h7"/><path class="eccls-3" d="M9 6H0v9h9V6z"/><path class="eccls-1" d="M9 6H0v9h9V6z"/><path class="eccls-2" d="M8 7v7H1V7h7"/><path class="eccls-4" d="M10 5h1v3h-1zM6 12V7H5v6h2v-1H6z"/><path class="eccls-5" d="M11.07 6.34H10L5.58 14v1.14h9.71v-1.49l-4.22-7.31z"/><path class="eccls-2" d="M11.88 5a.92.92 0 0 0-.8-.46H9.84A.92.92 0 0 0 9 5l-5.06 8.84a.92.92 0 0 0-.12.46v.7H8v-2h6V8z"/><path class="eccls-6" d="M15.59 16H5.28v-2.12L9.83 6h1.41l4.35 7.53V16z"/><path class="eccls-5" d="M5.88 14.76h9.11v-1.03L10.9 6.64h-.72l-4.3 7.44v.68z"/><path class="eccls-7" d="M10 9h1v3h-1zM10 13h1v1h-1z"/></svg><svg viewBox="-1 -1 18 18" width="18" height="18" id="vsphere-admin" x="146.89" y="50.02"><defs><style>.edcls-1,.edcls-3{fill:#fff}.edcls-1,.edcls-2{stroke:#789bb0;stroke-miterlimit:10}.edcls-2{fill:#d9e3e9;stroke:#36708c}.edcls-4{fill:#214556}</style></defs><title>*new</title><g id="edLayer_3" data-name="Layer 3"><path class="edcls-1" d="M15.5 12.56V8.44a2 2 0 0 0-2-2h-3a2 2 0 0 0-2 2v4.13h7z"/><circle class="edcls-1" cx="11.89" cy="3.23" r="2.23"/><path class="edcls-1" d="M7.5 12.56V8.44a2 2 0 0 0-2-2h-3a2 2 0 0 0-2 2v4.13h7z"/><circle class="edcls-1" cx="3.89" cy="3.23" r="2.23"/><circle class="edcls-2" cx="8" cy="4.83" r="2.5"/><path class="edcls-2" d="M12.44 14.56v-3.31a2.82 2.82 0 0 0-2.82-2.81H6.25a2.82 2.82 0 0 0-2.82 2.82v3.31h9z"/><path class="edcls-3" d="M6.06 12.21l-1 1.1.17.34.18.33H14V5.82l-1.06.67a4.85 4.85 0 0 0-.83-.32l-.46-1.43h-.37a6.34 6.34 0 0 0-1 0h-.37l-.44 1.43a4.91 4.91 0 0 0-.83.32L7.39 5.7l-.3.23a6.23 6.23 0 0 0-.77.68l-.25.26.57 1.41a4.91 4.91 0 0 0-.35.65l-1.46.2-.09.37a6.32 6.32 0 0 0-.15 1.12V11l1.41.69a4.69 4.69 0 0 0 .06.52z"/><path class="edcls-4" d="M14.71 11.33l1.19-.63a5.12 5.12 0 0 0-.12-.92l-1.27-.18a3.93 3.93 0 0 0-.52-1l.5-1.23a5.14 5.14 0 0 0-.64-.56l-1.09.68A3.92 3.92 0 0 0 11.6 7l-.4-1.24h-.82L10 7a3.92 3.92 0 0 0-1.16.44l-1.11-.62a5.14 5.14 0 0 0-.64.56l.5 1.23a3.93 3.93 0 0 0-.52 1l-1.27.17a5.12 5.12 0 0 0-.12.92l1.19.63a3.92 3.92 0 0 0 .2.91l-.87 1a5.12 5.12 0 0 0 .54.86l1.32-.28a4 4 0 0 0 .6.47v1.31a5.08 5.08 0 0 0 1 .35l.82-1.05h.7l.82 1a5.08 5.08 0 0 0 1-.35v-1.3a4 4 0 0 0 .6-.47l1.32.28a5.12 5.12 0 0 0 .54-.86l-.87-1a3.92 3.92 0 0 0 .12-.87zm-3.92 1.6a2.07 2.07 0 1 1 2.07-2.07 2.07 2.07 0 0 1-2.07 2.07z"/></g></svg><svg id="vsphere-inventory-lists" data-name="Layer 1" viewBox="-1 -1 18 18" width="18" height="18" x="72" y="222"><defs><style>.eecls-1{fill:#37708d}.eecls-2{fill:#dae3e9}.eecls-3{fill:#9bb7c5}.eecls-4{fill:#60b546}.eecls-5{fill:#fff}.eecls-6{fill:#fdba26}</style></defs><title>Artboard 74</title><path class="eecls-1" d="M0 0h12v15H0z"/><path class="eecls-2" d="M1 1h10v13H1z"/><path class="eecls-3" d="M3 3h6v1H3zM3 5h6v1H3zM3 7h6v1H3zM3 9h6v1H3z"/><path class="eecls-4" d="M15 7v5h-3v3H7v-5h3V7h5m0-1h-5a1.19 1.19 0 0 0-1 1v2H7a1.19 1.19 0 0 0-1 1v5a1.19 1.19 0 0 0 1 1h5a1.19 1.19 0 0 0 1-1v-2h2a1.19 1.19 0 0 0 1-1V7a1.19 1.19 0 0 0-1-1z"/><path class="eecls-5" d="M10 7h5v5h-5z"/><path class="eecls-5" d="M7 10h5v5H7z"/><path class="eecls-6" d="M11 8h3v3h-3zM8 11h3v3H8z"/></svg></svg>